<svg width="234" height="48" viewBox="0 0 234 48" xmlns="http://www.w3.org/2000/svg" class="" fill="#f36d21" aria-labelledby="gh-wm-engineering-village"><title id="gh-wm-engineering-village">Engineering Village - Elsevier</title><path d="M15.1497 22.5609C15.7074 22.1896 16.0792 21.8182 16.0792 21.354V21.0754C15.9573 21.044 15.8293 21.044 15.7074 21.0754C15.4286 21.354 14.9639 21.8182 14.5921 22.0039L14.0344 22.0967C14.0344 22.0967 13.9415 22.0967 14.0344 22.0039L14.9639 21.2611C15.1497 21.0754 15.0568 20.8897 14.778 20.7969C14.4062 20.7969 13.9415 20.8897 13.6627 21.1683C13.012 21.7253 12.7332 22.7466 12.7332 23.4894L12.4544 23.5822C12.3614 23.118 12.2685 22.6538 12.4544 22.0967L12.7332 21.4468C12.7332 21.2611 12.7332 21.0754 12.5473 20.9826L12.3614 21.0754C12.0826 21.911 11.6179 22.2824 10.8744 22.7466L10.0379 23.2108C9.75904 23.118 9.57315 22.9323 9.29432 22.5609L8.36489 21.2611C8.3216 21.2035 8.26547 21.1567 8.20094 21.1244C8.13642 21.0922 8.06526 21.0754 7.99312 21.0754H6.59897C6.35129 21.0255 6.11641 20.9256 5.90866 20.782C5.70092 20.6383 5.52468 20.4538 5.39071 20.2398C5.11188 19.8685 5.01893 19.8685 4.7401 20.2398L3.81067 20.8897C3.75877 20.9889 3.69646 21.0823 3.62478 21.1683C3.34596 21.2611 3.25301 21.1683 3.16007 20.9826C2.88124 20.2398 2.7883 19.4971 2.7883 18.6615V17.4545C2.59488 17.2694 2.37576 17.113 2.13769 16.9903C1.39415 16.7118 0.836489 16.1547 0.27883 15.5977C0.171273 15.5024 0.104681 15.3694 0.0929432 15.2263C0.0929432 15.2263 0.0929432 14.9478 0.371773 14.8549C0.743546 14.5764 1.3012 14.4836 1.76592 14.4836L3.25301 14.6692C3.62478 14.6692 3.71773 14.3907 3.62478 13.9265C3.53184 12.8124 3.90361 12.0696 4.55422 11.5126C5.01893 10.9555 4.92599 10.3985 4.83305 9.84139C4.83305 9.56286 4.7401 9.47002 4.46127 9.47002C3.71773 9.65571 3.71773 9.65571 3.53184 10.3985C3.53184 10.7698 3.34596 11.1412 3.16007 11.5126L1.95181 12.8124C1.85886 12.9981 1.67298 12.9981 1.58003 12.8124C1.0991 12.5063 0.742009 12.0402 0.57192 11.4965C0.401831 10.9528 0.429701 10.3665 0.650602 9.84139C0.650602 9.47002 0.929432 9.09865 1.11532 8.91296V9.19149L0.929432 9.84139C0.650602 10.677 0.650602 11.4197 1.20826 12.1625L1.39415 12.2553H1.67298L2.60241 11.3269C3.06713 10.8627 3.16007 10.3985 3.06713 9.84139C3.01308 9.62258 2.95108 9.4058 2.88124 9.19149V9.0058L2.60241 9.09865C2.23064 9.47002 2.13769 9.74855 1.95181 10.3056C1.92668 10.4183 1.8604 10.5176 1.76592 10.5841V10.2128C1.76592 9.65571 1.95181 9.19149 2.32358 8.82012C2.50947 8.54159 2.50947 8.44874 2.32358 8.3559C1.39415 8.17021 0.743546 7.89168 0.185886 7.14894C0.0849401 7.04878 0.0196442 6.91833 0 6.77756C0 6.59188 0 6.49903 0.27883 6.40619C0.929432 5.94197 1.67298 5.47776 2.41652 5.19923H2.97418C2.59022 4.10702 2.27972 2.99042 2.04475 1.85687L2.32358 0.928433H2.97418L3.90361 1.48549C4.18244 1.67118 4.27539 1.67118 4.46127 1.39265C4.7401 0.928433 5.20482 0.464217 5.66954 0.0928433L6.04131 0C6.22719 0 6.32014 0.0928433 6.50602 0.371373L7.24957 1.76402C7.5284 2.22824 7.80723 2.22824 8.179 1.94971L9.57315 1.02128C9.94492 0.649903 10.0379 0.649903 10.5026 0.928433C10.8744 1.20696 11.3391 1.67118 11.525 2.1354C11.525 2.22824 12.4544 1.76402 12.5473 1.48549C12.5473 1.11412 12.7332 0.83559 12.8262 0.55706C13.105 0.0928434 13.3838 0 13.5697 0C13.8485 0 14.2203 0.27853 14.4991 0.464217L15.3356 0.83559C15.6145 1.11412 15.7074 1.11412 15.8933 0.742747C16.1721 0.371373 16.358 0.27853 16.8227 0.27853C17.938 0.27853 18.8675 0.55706 19.611 1.39265C19.611 1.57834 19.7969 1.57834 19.9828 1.39265C20.2616 1.11412 20.5404 1.02128 21.0052 1.02128H21.9346C22.2134 1.02128 22.3064 1.02128 22.5852 0.742747C22.7711 0.371373 23.1429 0 23.5146 0C24.1652 0 25.0947 0.928433 25.4664 1.76402L25.2806 1.85687C25.0833 1.64942 24.8653 1.46275 24.6299 1.29981C24.2787 1.0756 23.9049 0.888887 23.5146 0.742747C23.1429 0.55706 22.957 0.742747 22.957 1.20696L23.3287 2.69246C23.4217 3.15667 23.8864 3.52805 24.2582 3.71373V3.89942H23.3287C22.7711 3.99226 22.3064 4.27079 21.7487 4.45648C21.5628 4.54932 21.5628 4.64217 21.7487 4.82785L22.6781 5.66344C23.5146 6.31335 24.3511 6.12766 25.4664 5.75629L25.8382 5.66344C26.3029 5.5706 26.7676 5.66344 27.0465 6.03482L28.0688 6.96325C28.3477 7.24178 28.4406 7.52031 28.2547 7.89168C27.9273 8.5179 27.5865 9.137 27.2324 9.74855L26.9535 10.0271C26.8606 10.0271 26.7676 9.74855 26.8606 9.47002L27.0465 9.28433C27.3904 8.78532 27.6131 8.21313 27.6971 7.61315C27.6971 7.14894 27.5112 6.87041 27.0465 7.05609L26.5818 7.14894C26.3959 7.24178 26.3029 7.14894 26.3029 6.96325L26.117 6.59188C26.0241 6.31335 25.8382 6.2205 25.5594 6.40619C25.1799 6.63726 24.8613 6.95558 24.6299 7.33462C24.2786 7.98769 24.1482 8.7368 24.2582 9.47002L24.3511 9.65571C24.4337 9.61849 24.4997 9.55246 24.537 9.47002C24.7229 9.19149 24.7229 8.82012 24.8158 8.54159L24.9088 7.79884H25.1876C25.4664 7.79884 25.5594 7.89168 25.5594 8.07737C25.0947 8.63443 24.9088 9.37718 24.6299 10.1199L24.2582 10.3056L23.8864 10.1199L23.3287 8.72727C23.0499 7.24178 22.957 7.14894 22.864 7.05609C22.2514 6.08412 21.4635 5.23415 20.5404 4.54932L20.3546 4.36364L20.6334 4.27079L21.4699 3.89942C21.8417 3.80658 22.1205 3.52805 22.3064 3.15667L22.5852 2.59961C22.7711 2.32108 22.7711 2.1354 22.5852 1.94971C22.1205 1.48549 21.6558 1.39265 21.0981 1.48549C20.5404 1.57834 20.1687 2.04255 19.9828 2.59961V3.15667C19.9828 3.4352 19.9828 3.52805 20.2616 3.34236L21.3769 2.59961L21.5628 2.50677C21.3769 2.97099 21.0981 3.34236 20.6334 3.52805C20.362 3.72458 20.0829 3.91041 19.7969 4.08511C19.611 4.17795 19.5181 4.08511 19.4251 3.89942V2.87814C19.4251 1.94971 18.8675 1.20696 18.1239 0.928433L17.3804 0.55706C17.2835 0.633707 17.2073 0.733268 17.1586 0.846742C17.1099 0.960215 17.0903 1.08402 17.1015 1.20696C17.1015 1.76402 17.1015 2.1354 17.2874 2.7853L17.3804 3.34236C17.4733 3.62089 17.8451 3.71373 18.1239 3.71373C18.3098 3.71373 18.4957 3.4352 18.2169 2.97099L17.8451 2.32108L17.7522 2.04255V1.94971L17.938 2.04255C18.4098 2.57999 18.7587 3.21364 18.9604 3.89942C19.1463 4.08511 18.9604 4.17795 18.7745 4.27079C18.1239 4.27079 17.4733 4.27079 16.9157 4.45648C15.9862 4.64217 15.6145 5.01354 15.2427 5.66344L15.0568 6.31335L16.358 6.2205C16.817 6.14834 17.2583 5.99089 17.6592 5.75629L18.5886 4.82785H18.9604C20.1687 5.38491 21.0052 6.12766 21.5628 7.33462L21.7487 7.61315V7.79884H21.6558L21.0052 7.61315L20.8193 7.33462L20.6334 6.77756C20.4475 6.59188 20.4475 6.59188 20.1687 6.59188L19.7969 6.77756C19.611 6.87041 19.5181 6.87041 19.4251 6.77756L19.2392 5.84913C19.2392 5.5706 19.0534 5.5706 18.7745 5.66344C18.206 5.93714 17.7473 6.39537 17.4733 6.96325C17.1945 7.52031 17.1016 7.89168 17.3804 9.28433C17.3804 9.56286 17.6592 9.93424 17.938 10.0271L20.3546 10.7698H20.4475V10.9555L19.5181 11.6054C19.2392 11.6054 19.2392 11.6054 19.1463 11.4197C18.96 11.0075 18.6295 10.6774 18.2169 10.4913C17.938 10.4913 17.938 10.4913 17.8451 10.677L17.4733 11.6054C17.4733 11.6983 17.3804 11.7911 17.1945 11.6054C16.5439 11.1412 15.8003 11.0484 14.9639 11.234C14.4991 11.234 14.3133 11.3269 14.4062 11.7911C14.5921 12.441 14.9639 12.9052 15.5215 13.2766L16.5439 13.8337C16.6537 13.8018 16.751 13.737 16.8227 13.648C17.0086 13.4623 16.9157 13.2766 16.8227 13.0909L15.3356 12.1625L15.6145 11.8839H15.8933C16.5439 12.2553 17.0086 12.8124 17.5663 13.1838C17.7522 13.4623 17.938 13.4623 18.031 13.0909L18.3098 12.0696V11.9768H18.4957L18.5886 12.9052L18.4028 13.7408C18.4028 14.0193 18.1239 14.1122 17.938 14.1122C17.2874 14.0193 16.7298 14.205 16.1721 14.3907C15.8963 14.4442 15.6165 14.4752 15.3356 14.4836L14.778 14.3907L14.685 14.205C14.7774 14.191 14.8714 14.191 14.9639 14.205C15.2427 14.205 15.6145 14.205 15.8933 14.0193C15.7871 13.905 15.6612 13.8106 15.5215 13.7408C14.9639 13.2766 14.3133 13.7408 13.7556 14.0193C13.4768 14.205 13.4768 14.205 13.5697 14.5764C13.7556 15.0406 14.1274 15.1335 14.4991 15.1335H15.7074L16.6368 14.6692H17.0086L16.9157 15.0406L16.0792 15.5048L15.8933 15.5977L15.6145 15.8762C15.7074 15.9691 15.8003 16.1547 15.9862 16.1547L17.0086 16.4333C17.6592 16.5261 17.938 16.4333 17.938 15.7834L18.3098 14.8549C18.4028 14.6692 18.5886 14.6692 18.6816 14.8549L19.8898 16.9903C19.8898 17.176 19.8898 17.2689 19.704 17.2689C18.8028 17.1658 17.9041 17.042 17.0086 16.8975C16.7298 16.8975 16.4509 16.619 16.0792 16.5261C15.7074 16.3404 15.1497 16.1547 14.685 16.1547C14.2203 16.1547 13.9415 16.4333 14.1274 16.8975L14.778 18.7544C14.9639 19.1257 15.4286 19.3114 15.8933 19.4043C16.0792 19.4043 15.9862 19.2186 15.8933 19.1257L15.1497 17.5474V17.3617H15.3356C15.7074 18.1045 16.1721 18.6615 16.5439 19.2186V19.6828L16.1721 19.7756C15.2427 19.6828 14.3133 19.4043 13.4768 19.0329L13.2909 18.6615H13.8485C14.0344 18.6615 14.2203 18.6615 14.1274 18.4758C14.0174 18.3045 13.8541 18.174 13.6627 18.1045C13.2252 17.8568 12.7562 17.6694 12.2685 17.5474C11.9897 17.5474 11.8038 17.6402 11.8967 17.9188C11.8967 18.1973 12.0826 18.4758 12.2685 18.8472C12.297 18.9379 12.297 19.0351 12.2685 19.1257L11.2461 18.94C10.5026 18.5687 10.5026 18.383 10.5026 17.5474V16.8975C10.5955 16.619 10.6885 16.5261 10.8744 16.619L13.012 17.2689L13.6627 17.6402C13.8485 17.6402 13.9415 17.6402 13.9415 17.4545C13.9359 17.3367 13.8984 17.2226 13.8329 17.1245C13.7674 17.0264 13.6764 16.9479 13.5697 16.8975L11.2461 15.9691C11.0602 15.8762 10.9673 15.7834 11.0602 15.5977C11.432 15.0406 11.525 14.4836 11.432 13.8337L11.525 13.648L11.8038 13.8337C11.8274 13.925 11.8274 14.0208 11.8038 14.1122C11.8967 14.6692 12.2685 15.0406 12.7332 15.412C13.3838 16.1547 13.3838 16.1547 14.4062 15.8762L14.685 15.6905L14.4062 15.412L13.7556 15.2263C13.105 14.9478 12.9191 14.4836 13.105 13.7408L13.7556 11.8839L13.8485 10.9555C13.8485 10.677 14.0344 10.677 14.1274 10.677L15.6145 10.5841C15.9862 10.5841 16.358 10.1199 16.5439 9.84139L17.0086 9.09865C16.8848 8.96175 16.7231 8.86478 16.5439 8.82012L15.9862 8.91296C16.1721 8.54159 16.2651 8.26306 16.2651 7.89168L16.1721 7.14894C16.0792 6.96325 15.8933 6.87041 15.7074 7.05609C15.3356 7.33462 15.0568 7.706 14.9639 8.17021C14.8547 8.66221 14.7617 9.15764 14.685 9.65571C14.7851 9.60524 14.8787 9.54289 14.9639 9.47002L15.4286 9.28433H15.8003C15.7074 9.47002 15.5215 9.47002 15.4286 9.56286C15.2035 9.75137 14.9533 9.90761 14.685 10.0271C14.4062 10.1199 14.3133 10.0271 14.4062 9.74855L14.4991 9.0058L14.4062 7.89168L13.8485 6.40619C13.7443 6.17888 13.6199 5.96137 13.4768 5.75629C13.3838 5.5706 13.1979 5.66344 12.9191 6.03482C12.4544 6.49903 12.2685 6.96325 12.0826 7.89168V8.07737L11.7108 8.3559L11.525 8.26306L11.8038 7.24178C11.8038 6.77756 11.6179 6.49903 11.3391 6.31335L10.5955 6.87041C10.4749 7.03111 10.4096 7.22658 10.4096 7.42747C10.4096 7.62835 10.4749 7.82382 10.5955 7.98453C10.9673 8.54159 10.9673 9.19149 10.7814 9.93424L10.4096 8.44874L9.94492 7.52031C9.75904 7.33462 9.66609 6.87041 9.75904 6.59188C9.94492 6.31335 10.5955 6.2205 10.6885 5.84913C10.9673 5.5706 10.8744 5.38491 11.1532 5.01354C11.3391 4.82785 11.7108 4.36364 12.0826 4.54932C12.8262 5.01354 13.7556 5.10638 14.685 4.9207C15.0568 4.9207 15.1497 4.9207 15.3356 4.45648C15.3356 4.17795 15.4286 4.45648 15.8003 4.27079C16.358 4.08511 16.6368 3.62089 16.6368 2.97099V2.04255L16.358 1.11412H16.0792L15.2427 2.41393L14.9639 3.06383C14.9639 3.15667 14.778 3.24952 14.685 3.06383C14.5182 2.88759 14.331 2.73176 14.1274 2.59961C14.0344 2.41393 14.0344 1.94971 14.0344 1.48549C14.2203 1.48549 14.3133 1.67118 14.4062 1.85687C14.4062 2.1354 14.4991 2.41393 14.778 2.50677C14.9639 2.69246 15.2427 2.1354 15.2427 1.67118C15.2306 1.57308 15.199 1.47839 15.1497 1.39265C14.8709 0.928433 14.2203 0.464217 13.7556 0.464217C13.2909 0.464217 12.9191 1.11412 13.105 1.67118L13.2909 2.04255C12.1756 2.59961 11.8967 2.97099 11.432 3.52805C11.432 3.62089 11.3391 3.80658 11.432 3.89942C11.6179 4.27079 11.432 4.45648 11.0602 4.73501C10.8523 4.84734 10.6345 4.94057 10.4096 5.01354H10.2238C10.2025 4.95347 10.2025 4.88793 10.2238 4.82785L11.1532 2.97099C11.432 2.32108 10.7814 1.67118 10.2238 1.48549C9.94492 1.29981 9.57315 1.39265 9.29432 1.67118C8.73666 2.59961 8.73666 3.62089 9.38726 4.64217L9.48021 4.73501C9.57315 4.9207 9.57315 5.01354 9.38726 5.01354L7.90017 5.10638C7.60514 5.1241 7.31799 5.20851 7.06038 5.35326C6.80278 5.49801 6.58144 5.69931 6.41308 5.94197C6.32014 6.12766 6.13425 6.12766 6.04131 5.94197C5.57659 5.75629 5.29776 5.84913 4.92599 6.03482L3.53184 6.59188L3.06713 6.68472L2.88124 6.59188C2.88124 6.59188 2.88124 6.40619 3.06713 6.40619L3.90361 6.2205L4.18244 6.12766L4.27539 5.75629L3.99656 5.5706C3.62246 5.55912 3.24827 5.59027 2.88124 5.66344C2.04475 5.66344 1.48709 6.03482 0.929432 6.59188C0.650602 6.87041 0.650602 7.14894 0.929432 7.33462C1.58003 7.79884 2.23064 8.26306 3.16007 8.07737L3.81067 7.52031L4.46127 6.87041C4.7401 6.59188 5.29776 6.12766 5.66954 6.59188C6.22719 7.24178 6.32014 7.98453 7.24957 7.79884C7.62134 7.79884 7.71429 7.706 7.90017 7.33462V6.96325C7.90017 6.68472 7.90017 6.59188 7.5284 6.68472L7.06368 6.87041H6.78485L6.8778 6.49903L7.43546 6.2205C8.11271 6.04733 8.79455 5.89253 9.48021 5.75629C9.54173 5.7459 9.60457 5.7459 9.66609 5.75629V5.94197C9.38726 6.49903 9.01549 6.68472 8.55078 6.87041L8.36489 7.24178C7.99312 8.17021 8.179 9.09865 8.8296 9.84139L9.57315 10.4913C10.1308 10.7698 10.2238 11.234 10.4096 11.6983L10.7814 12.6267C10.4096 12.9052 10.0379 13.1838 9.85198 13.5551C9.75904 13.7408 9.66609 13.648 9.57315 13.5551L9.38726 12.9052C9.10843 12.3482 8.73666 11.9768 8.08606 11.9768L7.34251 11.7911C7.06368 11.7911 6.8778 11.8839 6.78485 12.2553C6.59897 12.9981 6.59897 13.7408 7.34251 14.4836L7.90017 14.8549C7.77288 14.9099 7.64876 14.9718 7.5284 15.0406C7.20325 15.122 6.8906 15.2469 6.59897 15.412C6.31045 15.5773 6.05771 15.7982 5.85542 16.0619C5.85542 16.2476 6.22719 16.4333 6.50602 16.5261C7.43546 16.8975 8.179 16.8975 9.01549 16.5261C9.48021 16.4333 9.48021 16.5261 9.57315 16.8975L9.75904 17.9188C9.85198 18.1973 9.75904 18.2901 9.48021 18.1973C8.179 17.8259 6.69191 17.2689 5.57659 16.5261C5.13092 16.3193 4.66322 16.1635 4.18244 16.0619C3.99656 16.1547 3.81067 16.3404 3.71773 16.2476C3.34596 16.2476 2.60241 15.9691 2.32358 15.7834C2.24105 15.7462 2.17495 15.6801 2.13769 15.5977C2.19866 15.582 2.26262 15.582 2.32358 15.5977L3.99656 15.6905L4.27539 15.5977C4.23261 15.5192 4.16806 15.4547 4.0895 15.412C3.16007 14.6692 2.13769 14.8549 1.11532 15.0406C0.743546 15.0406 0.650602 15.2263 0.929432 15.5048C1.48709 16.2476 2.13769 16.8046 3.06713 16.8975H4.92599C5.94836 17.5474 7.06368 18.1973 8.27195 18.5687V18.7544C7.80723 18.7544 7.34251 18.7544 6.97074 18.94L5.76248 19.1257C5.39071 19.1257 5.29776 19.4971 5.48365 19.8685C5.85542 20.3327 6.41308 20.6112 6.97074 20.7969C7.43546 20.8897 7.90017 20.7969 8.27195 20.7041C8.82961 20.4255 9.10843 20.0542 9.57315 19.7756C9.85198 19.5899 10.3167 19.7756 10.5955 19.8685L11.8967 20.2398C12.5473 20.4255 13.2909 20.4255 14.0344 20.5184H17.0086C16.8551 20.8792 16.7307 21.2518 16.6368 21.6325C16.5439 21.8182 16.6368 21.911 16.8227 21.911C17.1015 21.911 17.4733 21.6325 17.6592 21.354V20.6112L17.8451 20.3327L18.3098 20.4255L18.031 21.1683L17.8451 21.5397L18.3098 21.6325C18.9604 21.6325 19.0534 21.5397 19.0534 20.8897C19.0369 20.7019 19.0059 20.5157 18.9604 20.3327C18.9604 19.8685 18.9604 19.4971 19.4251 19.3114C19.7969 19.1257 20.2616 19.1257 20.6334 19.2186C21.9346 19.3114 23.3287 20.147 24.1652 20.7969C24.7229 21.1683 24.1652 21.7253 24.1652 22.5609V23.7679C24.1652 24.1393 24.3511 24.4178 24.4441 24.5106L25.9312 25.4391C26.3959 25.8104 26.5818 25.9961 27.2324 26.1818H27.6041C27.6393 25.9978 27.6393 25.8088 27.6041 25.6248L26.4888 25.1605L26.21 24.9749L26.5818 24.7892L27.3253 24.6035C27.3935 24.5869 27.457 24.5552 27.5112 24.5106L27.3253 24.325L26.3959 24.0464C26.3029 24.0464 26.21 24.0464 26.21 23.8607C26.2909 23.7825 26.3854 23.7196 26.4888 23.675H27.3253C27.4078 23.6378 27.4739 23.5718 27.5112 23.4894L27.3253 23.3037L26.3959 22.8395L26.21 22.5609H27.2324L27.4182 22.3752C27.3992 22.3081 27.3677 22.2451 27.3253 22.1896L26.5818 21.7253C26.3959 21.7253 26.3029 21.5397 26.3029 21.354H26.6747L27.3253 21.5397H27.6041C27.6161 21.4892 27.6138 21.4364 27.5974 21.3872C27.581 21.338 27.5511 21.2943 27.5112 21.2611L27.1394 21.0754L26.5818 20.5184C26.4888 20.5184 26.5818 20.3327 26.5818 20.3327H26.6747L27.4182 20.5184C27.5101 20.5385 27.6052 20.5385 27.6971 20.5184L27.6041 20.2398L26.9535 19.7756V19.4043L27.2324 19.4971H27.6041L27.883 19.5899C27.8987 19.529 27.8987 19.4652 27.883 19.4043C27.8328 19.2148 27.7707 19.0288 27.6971 18.8472V18.6615H27.883L28.7194 18.94H28.9983L28.9053 18.6615L28.7194 18.2901V18.1045H28.9983L29.9277 18.5687H30.2065L29.9277 18.0116L30.0207 17.9188L30.6713 18.1045L31.3219 18.1973C31.3832 18.2098 31.4464 18.2098 31.5077 18.1973L31.3219 17.6402C31.4126 17.6117 31.5099 17.6117 31.6007 17.6402C31.8795 17.6402 32.0654 17.9188 32.4372 17.9188L33.5525 17.8259C35.0396 17.5474 36.1549 17.4545 37.5491 17.0832C38.1535 16.875 38.7435 16.6269 39.315 16.3404H39.5009C39.8726 17.3617 40.7091 17.7331 41.5456 17.8259H42.3821C42.568 17.8259 42.6609 17.8259 42.568 17.5474C42.3821 16.619 41.9174 15.9691 41.2668 15.3191L40.7091 15.0406C40.5232 14.7621 40.5232 14.4836 40.7091 14.2979L42.2892 13.3694C42.564 13.1896 42.7862 12.9402 42.9332 12.6466C43.0801 12.353 43.1465 12.0258 43.1256 11.6983C43.1256 11.5126 43.1256 11.3269 42.8468 11.234C42.7409 11.2739 42.6456 11.3374 42.568 11.4197L42.1962 12.2553L42.0103 12.441L41.6386 12.6267V12.1625C41.6386 11.9768 41.6386 11.8839 41.8244 11.6983L42.6609 10.7698V10.4913H42.475C42.0945 10.537 41.7374 10.6992 41.4527 10.9555L40.8021 11.8839L39.8726 14.0193L39.6867 14.6692C39.5938 15.0406 39.5938 15.2263 39.8726 15.412L41.5456 16.3404L41.7315 16.619H41.4527C41.1943 16.6281 40.9368 16.5832 40.6968 16.4873C40.4567 16.3914 40.2393 16.2465 40.0585 16.0619L39.5009 15.6905L37.8279 16.1547C37.4561 16.1547 37.2702 16.3404 37.0843 16.619C37.0843 16.8046 36.8055 16.8975 36.5267 16.8046L35.4114 16.4333C34.9466 16.3404 34.389 16.4333 33.8313 16.5261H33.5525C33.3666 16.619 33.2737 16.5261 33.3666 16.3404L33.5525 15.412V15.0406C33.3666 15.0406 33.1807 15.0406 33.0878 15.2263L32.6231 16.1547C32.4372 16.3404 32.4372 16.3404 32.1583 16.2476C31.7911 16.0755 31.4475 15.8571 31.136 15.5977L30.4854 14.5764C30.4854 14.3907 30.4854 14.3907 30.6713 14.3907L31.6007 15.1335L31.8795 15.6905H32.2513V15.2263C32.4372 14.8549 32.3442 14.2979 32.0654 14.0193L30.7642 13.0909C30.0207 12.6267 29.9277 12.7195 29.7418 13.0909C29.4977 13.5145 29.3695 13.9948 29.3701 14.4836C29.5559 15.5977 29.8348 16.0619 31.2289 16.7118C31.1917 16.7942 31.1256 16.8603 31.043 16.8975C31.043 16.9903 30.9501 17.0832 30.7642 17.0832L29.0912 16.9903C28.9053 16.9903 28.8124 16.9903 28.8124 16.8046C28.3477 15.1335 28.6265 13.3694 29.463 11.7911L29.7418 11.5126C30.076 11.3151 30.417 11.1293 30.7642 10.9555C30.9501 10.9555 31.043 10.9555 31.136 11.1412L31.3219 12.2553L31.4148 12.8124C31.6936 12.8124 31.8795 12.7195 31.9725 12.5338C32.3442 11.8839 32.5301 11.0484 32.1583 10.3056C32.1583 10.2128 32.1583 10.0271 32.3442 10.0271L35.1325 8.82012C35.5972 8.82012 36.3408 8.82012 37.2702 9.0058C37.4561 9.0058 37.7349 9.37718 38.1997 9.56286C37.642 9.74855 37.0843 10.2128 36.6196 10.677C36.4337 10.7698 36.3408 10.9555 36.4337 11.3269L37.2702 11.1412C37.7349 10.9555 37.9208 10.9555 38.2926 10.9555H38.5714C38.5714 11.056 38.5388 11.1537 38.4785 11.234C38.2926 11.3269 38.1067 11.234 38.0138 11.4197C37.8279 11.4197 37.7349 11.6054 37.8279 11.7911L38.1997 12.0696C38.6644 12.0696 39.1291 11.9768 39.5009 11.7911C39.6867 11.6054 40.4303 10.5841 40.0585 10.4913C39.7797 10.4913 39.222 10.4913 39.0361 10.3056C39.0593 10.2416 39.0963 10.1835 39.1445 10.1353C39.1927 10.0872 39.2509 10.0502 39.315 10.0271L40.2444 10.1199H42.1033C42.2892 9.93424 42.3821 9.84139 42.2892 9.74855C42.1282 9.39892 41.8964 9.08642 41.6084 8.83075C41.3205 8.57507 40.9826 8.38178 40.6162 8.26306H36.3408L36.062 8.07737L36.2478 7.98453L37.1773 7.42747C37.5491 7.14894 37.8279 6.77756 38.0138 6.2205C38.0374 6.12916 38.0374 6.03332 38.0138 5.94197C37.7349 4.9207 37.0843 4.08511 35.969 4.08511L35.4114 3.89942C35.2255 3.89942 35.1325 3.99226 35.1325 4.17795V5.10638C35.1325 5.29207 35.1325 5.38491 35.4114 5.38491L36.9914 5.84913C37.2702 6.03482 37.3632 6.2205 36.9914 6.49903L36.062 7.05609C36.062 7.14894 35.969 7.05609 35.969 7.05609L35.8761 6.31335C35.8595 6.24524 35.8278 6.18175 35.7831 6.12766C35.6785 6.13941 35.5793 6.18052 35.497 6.24625C35.4148 6.31197 35.3529 6.39961 35.3184 6.49903C35.2011 6.76885 35.1078 7.04846 35.0396 7.33462C35.0396 7.706 34.7608 7.89168 34.389 8.07737C34.296 8.07737 34.1102 8.07737 34.1102 7.89168L34.296 7.33462C34.5467 6.74974 34.6427 6.11035 34.5749 5.47776V4.36364C34.5424 4.27703 34.5435 4.18145 34.5779 4.0956C34.6123 4.00975 34.6775 3.93979 34.7608 3.89942L36.3408 3.34236C36.4337 3.34236 36.6196 3.34236 36.8055 3.52805L37.9208 4.73501C38.1997 5.10638 38.2926 5.10638 38.4785 4.73501C38.7573 4.45648 38.9432 4.08511 39.4079 3.89942C39.5009 3.89942 39.5009 3.71373 39.315 3.62089L38.1067 3.24952L37.8279 3.15667L37.642 2.97099L37.8279 2.7853L39.5009 2.1354L39.8726 2.04255C40.0585 1.94971 40.1515 1.76402 40.1515 1.57834L39.9656 0.928433C39.9656 0.649903 39.7797 0.55706 39.5938 0.464217C39.1291 0.464217 38.6644 0.464217 38.2926 0.649903C37.9498 0.815092 37.6359 1.03456 37.3632 1.29981C37.3142 1.38449 37.2885 1.48055 37.2885 1.57834C37.2885 1.67612 37.3142 1.77218 37.3632 1.85687C37.4248 1.86575 37.4874 1.86575 37.5491 1.85687C37.9096 1.74983 38.2536 1.59362 38.5714 1.39265L38.9432 1.02128L39.1291 1.29981C38.1308 1.81532 37.1072 2.28013 36.062 2.69246L34.2031 3.24952H34.0172V3.06383C34.3804 2.5623 34.7522 2.06706 35.1325 1.57834V1.94971L34.8537 2.50677V2.69246H35.0396C35.5972 2.59961 36.1549 1.94971 36.1549 1.29981C36.1549 1.11412 36.062 1.02128 35.7831 1.02128C35.4114 1.02128 35.0396 1.02128 34.6678 1.20696C34.0172 1.39265 33.7384 1.76402 33.4596 2.41393C33.3772 2.68755 33.3151 2.96683 33.2737 3.24952C33.2737 3.52805 32.9019 3.62089 32.6231 3.80658C32.2513 4.08511 31.9725 4.08511 31.6007 4.08511C31.2843 4.15437 30.9736 4.24748 30.6713 4.36364V4.08511L31.2289 3.06383C31.6007 2.59961 31.5077 2.32108 30.9501 2.1354C30.5495 1.98343 30.1087 1.97436 29.7023 2.1097C29.2958 2.24505 28.9486 2.51651 28.7194 2.87814L28.0688 4.36364C27.9759 4.64217 28.0688 4.82785 28.3477 4.82785C28.8124 4.9207 29.463 4.82785 29.8348 4.64217V5.47776L29.463 6.03482C29.2771 6.31335 29.0912 6.40619 28.8124 6.31335C28.3009 6.06384 27.8044 5.78484 27.3253 5.47776C26.7676 5.19923 26.21 4.9207 25.6523 4.9207C25.56 4.93628 25.4658 4.93628 25.3735 4.9207C25.1876 4.9207 25.1876 4.82785 25.3735 4.73501V4.17795L24.7229 2.87814L24.4441 2.22824L25.1876 2.50677L25.3735 3.4352L25.7453 3.99226C25.8382 4.08511 26.0241 4.17795 26.117 4.08511C26.117 4.08511 26.3029 3.99226 26.3029 3.80658C26.3029 3.52805 25.9312 2.87814 26.4888 1.67118C26.7676 1.11412 27.6041 0.0928433 28.0688 0.0928433C28.3477 0.0928433 28.6265 0.185687 28.7194 0.649903L28.9983 1.39265C28.9983 1.67118 29.1842 1.67118 29.3701 1.67118C29.8348 1.67118 30.5783 1.29981 31.136 1.29981C31.5077 1.20696 31.7866 2.1354 31.9725 2.41393C32.2513 2.87814 32.3442 3.34236 32.716 2.7853C33.1341 2.15554 33.5679 1.53638 34.0172 0.928433C34.7608 0.55706 35.6902 0.464217 36.4337 0.55706C36.6196 0.55706 36.7126 0.649903 36.6196 0.928433V1.57834H36.8984C36.8984 1.39265 37.1773 1.29981 37.2702 1.20696L37.5491 0.83559C38.0138 0.371373 38.4785 0.0928433 39.4079 0.0928433C39.8726 0.0928433 40.2444 0.185687 40.6162 0.371373C40.895 0.371373 40.988 0.464217 40.895 0.742747L40.6162 1.67118C40.5232 2.04255 40.6162 2.1354 40.988 2.32108L41.7315 2.87814L42.1033 2.7853C42.475 1.94971 43.2186 1.20696 43.8692 0.83559C44.148 0.649903 44.241 0.649903 44.3339 0.928433L44.7057 2.22824V2.87814L45.0775 2.41393L45.7281 1.76402C46.1349 1.28551 46.6917 0.958338 47.3081 0.83559C47.9402 0.800981 48.5728 0.895763 49.167 1.11412C49.4458 1.11412 49.167 1.48549 48.9811 1.76402C48.9811 1.94971 48.7952 2.04255 48.7022 2.1354C48.7022 2.32108 48.6093 2.32108 48.4234 2.1354L47.9587 1.48549C47.6799 1.20696 47.1222 1.39265 46.7504 1.57834C45.9767 2.02132 45.335 2.66226 44.8916 3.4352C44.7057 3.89942 43.7762 5.01354 43.4045 5.29207H43.1256V5.10638C43.8059 4.08522 44.1917 2.89678 44.241 1.67118C44.0551 1.67118 43.8692 1.67118 43.6833 1.85687C43.4218 2.02376 43.1998 2.24553 43.0327 2.50677C42.4932 3.41025 42.1747 4.42817 42.1033 5.47776C42.1033 5.66344 42.1033 5.94197 41.8244 6.03482L40.895 6.49903H40.7091C40.895 5.66344 40.7091 5.10638 40.2444 4.36364C40.2444 4.17795 40.0585 4.17795 39.8726 4.17795L39.5009 4.45648C38.7573 5.10638 38.3855 6.03482 38.3855 7.24178C38.3855 7.33462 38.5714 7.33462 38.7573 7.24178C38.8718 7.1357 38.9663 7.00991 39.0361 6.87041L39.6867 5.66344L39.9656 5.47776C39.9941 5.56841 39.9941 5.66563 39.9656 5.75629L39.8726 6.49903C39.7797 6.77756 39.4079 7.24178 39.0361 7.42747L39.1291 7.79884C39.9656 7.79884 40.4303 7.79884 41.0809 7.33462C41.8244 6.96325 42.2892 6.68472 42.6609 6.68472L44.0551 7.14894L43.7762 7.33462L42.9398 7.98453C42.568 8.26306 42.475 8.3559 42.475 9.0058L42.6609 9.84139L42.8468 10.0271L43.0327 9.93424L43.9621 8.72727L44.148 8.63443V8.82012C44.148 9.28433 43.8692 9.65571 43.5904 9.93424L43.4045 10.2128C43.1256 10.4913 43.1256 10.5841 43.4045 10.9555C43.6833 11.3269 43.6833 11.7911 43.5904 12.2553C43.5142 12.6864 43.4522 13.1199 43.4045 13.5551L42.475 13.9265L41.7315 14.4836C41.3597 14.7621 41.3597 14.9478 41.3597 15.0406L41.5456 15.2263L41.9174 15.412C42.2892 15.5048 43.0327 15.412 43.2186 14.9478L43.3115 14.4836L43.5904 14.5764C43.7762 15.0406 43.8692 15.412 44.241 15.6905L43.9621 16.0619C43.7762 16.4333 43.6833 16.619 43.4045 16.619H43.1256C42.9398 16.619 42.7539 16.619 42.7539 16.8975V17.7331C42.7539 18.0116 42.6609 18.2901 42.3821 18.1973C41.8244 18.1973 41.4527 17.7331 40.8021 17.8259C40.3373 17.8259 40.0585 17.7331 39.7797 17.5474L39.1291 17.176L36.7126 17.6402L34.1102 18.1045L32.1583 18.4758C31.9725 18.4758 31.9725 18.6615 31.8795 18.8472C31.8795 19.4043 31.6007 19.8685 31.5077 20.4255L31.6936 20.7041L31.8795 20.5184L32.2513 19.9613C32.4372 19.6828 33.0878 19.9613 33.1807 20.3327C33.2737 20.5184 32.9948 20.6112 32.9948 20.8897C32.9948 21.0754 33.3666 21.2611 33.3666 21.5397L33.1807 22.0039C34.1102 22.5609 34.296 23.0251 34.296 23.8607C34.296 24.0464 34.296 24.1393 34.4819 24.2321L34.8537 24.6963C35.2255 25.1605 35.5972 25.9033 35.8761 25.9961H36.7126V26.1818C36.7126 26.3675 36.4337 26.646 36.1549 26.646C35.5043 26.9246 35.2255 25.9033 34.8537 25.4391C34.6931 25.1735 34.5063 24.9247 34.296 24.6963C34.0172 24.9749 33.6454 26.1818 33.6454 26.8317L33.9243 27.5745L34.5749 28.9671C34.8537 29.3385 35.2255 29.4313 35.5972 29.5242C35.969 29.7099 36.2478 29.7099 36.5267 29.617H36.8984V28.8743L37.1773 26.646L37.2702 25.1605C37.2702 24.882 37.5491 24.4178 37.9208 24.1393C38.2926 23.8607 38.4785 23.4894 38.3855 23.0251C38.4038 22.8563 38.4681 22.6958 38.5714 22.5609C38.5714 22.2824 38.3855 22.2824 38.1067 22.2824C37.9208 22.2824 37.8279 22.0967 37.9208 21.8182L38.8503 20.6112C38.9969 20.4084 39.1215 20.1905 39.222 19.9613C39.222 19.5899 39.222 19.0329 39.5009 19.0329H40.8021C41.1738 19.0329 41.8244 19.4043 42.0103 19.5899V19.8685L42.6609 20.4255C42.9398 20.7041 43.2186 21.4468 42.6609 22.7466C42.9398 22.9323 42.9398 23.118 42.9398 23.3965C42.9398 23.6751 42.9398 23.675 43.2186 23.7679C43.4974 23.8607 43.6833 24.0464 43.8692 24.6963C44.0551 25.1605 44.7057 26.5532 45.0775 30.2669C44.9845 31.2882 44.7986 32.1238 44.5198 33.0522C44.7986 34.8162 45.0774 36.8588 45.2633 39.8298L45.5422 45.029C46.0069 45.029 46.1928 45.2147 46.2857 44.7505L46.3787 44.3791C46.4249 44.3033 46.4887 44.2396 46.5645 44.1934C46.6431 44.2362 46.7076 44.3006 46.7504 44.3791L47.0293 45.3075L47.3081 45.8646L47.494 46.0503H47.6799C47.6993 45.8962 47.6993 45.7402 47.6799 45.5861L47.7728 44.8433C47.7728 44.7505 47.7728 44.6576 47.9587 44.5648L48.1446 44.7505L48.6093 45.6789C48.6093 45.8646 48.6093 45.9574 48.7952 46.0503H48.9811V44.6576L48.7952 44.0077L48.8881 43.7292C48.9554 43.7482 49.0184 43.7797 49.074 43.822L50.4682 45.6789L50.5611 45.8646H50.8399C50.8736 45.8269 50.8991 45.7828 50.9151 45.7349C50.9311 45.687 50.9371 45.6364 50.9329 45.5861L50.8399 45.1219V44.8433L51.2117 45.029L51.6764 45.5861L51.9552 46.0503L52.2341 46.236C52.2597 46.1774 52.2729 46.1142 52.2729 46.0503C52.2729 45.9864 52.2597 45.9232 52.2341 45.8646L52.1411 45.5861C52.327 45.5861 52.5129 45.5861 52.6059 45.7718L52.8847 46.1431C53.0706 46.4217 53.3494 46.7002 54 46.793V46.8859L53.4423 47.1644H51.1188C50.5049 47.0818 49.8813 47.213 49.3528 47.5358C48.9811 47.7215 48.6093 47.7215 48.1446 47.7215H45.6351C44.148 47.6286 43.5904 47.8143 42.1033 48H40.988C40.3373 48 39.0361 47.7215 39.0361 47.3501L39.222 46.6073C39.222 46.4217 39.222 46.4217 38.9432 46.3288C38.7884 46.3219 38.6333 46.3219 38.4785 46.3288C37.7349 46.236 36.8984 46.3288 36.1549 46.4217C35.6902 46.4217 35.2255 46.6073 34.8537 46.7002C33.7384 46.793 33.1807 46.7002 32.6231 46.236C32.2513 45.8646 32.0654 45.7718 31.7866 45.3075C31.3219 44.6576 30.4854 43.9149 29.5559 43.265C28.6265 42.5222 27.5112 41.1296 26.7676 40.2012C26.5818 40.0155 26.3029 39.087 26.21 38.8085C26.0594 38.4249 25.9959 38.0127 26.0241 37.6015L26.3959 37.4159L27.4182 37.1373C27.6041 37.1373 27.79 36.9516 27.79 36.8588V36.766L27.6971 36.6731H26.5818L26.117 36.3017C26.117 36.1161 26.3029 36.0232 26.3959 35.9304C27.0465 35.8375 27.5112 35.6518 27.883 35.3733C27.8987 35.3124 27.8987 35.2485 27.883 35.1876L26.5818 35.0948L26.21 34.8162C26.21 34.6306 26.3959 34.6306 26.4888 34.5377L27.2324 34.1663L27.79 33.795V33.6093C27.3253 33.6093 26.8606 33.6093 26.3029 33.4236C26.2698 33.3949 26.2387 33.3639 26.21 33.3308C26.2465 33.2233 26.3106 33.1273 26.3959 33.0522C26.6747 33.0522 27.3253 32.9594 27.6041 32.7737C27.6827 32.731 27.7472 32.6665 27.79 32.588C27.7438 32.5122 27.68 32.4485 27.6041 32.4023C27.1969 32.3745 26.7927 32.3124 26.3959 32.2166C26.3029 32.2166 26.21 32.2166 26.21 32.0309L26.3959 31.8453L27.5112 31.6596C27.6275 31.5935 27.7239 31.4973 27.79 31.381L27.5112 31.1954L26.5818 31.0097C26.486 30.988 26.3926 30.9569 26.3029 30.9168V30.7311L26.5818 30.6383L27.2324 30.4526C27.4182 30.4526 27.6041 30.2669 27.6041 30.1741C27.6204 30.1459 27.629 30.1138 27.629 30.0812C27.629 30.0486 27.6204 30.0166 27.6041 29.9884H26.4888L26.117 29.8027L26.3959 29.617C26.6747 29.617 27.0465 29.4313 27.3253 29.2456L27.4182 29.06C27.3617 29.0193 27.2989 28.9879 27.2324 28.9671C26.9184 28.8886 26.6083 28.7957 26.3029 28.6886C26.2828 28.5968 26.2828 28.5018 26.3029 28.4101L26.3959 28.2244H26.9535C26.8798 28.0297 26.7863 27.8431 26.6747 27.6673C26.6319 27.5888 26.5674 27.5244 26.4888 27.4816C26.21 27.2959 25.8382 27.2031 25.5594 26.9246C25.0017 26.646 24.4441 26.2747 23.9793 25.8104C23.3923 25.3327 22.9698 24.6834 22.7711 23.9536C22.6913 23.4928 22.6913 23.0217 22.7711 22.5609C22.7711 22.1896 23.0499 21.8182 23.2358 21.4468V21.1683C22.9894 20.8311 22.7091 20.5201 22.3993 20.2398C22.2352 20.1087 22.0452 20.0138 21.8417 19.9613L20.5404 19.5899C20.1687 19.4971 19.8898 19.4043 19.611 19.4971C19.442 19.6847 19.3152 19.9063 19.2392 20.147L19.5181 21.5397C19.8898 21.5397 20.4475 21.7253 20.9122 22.0039C21.284 22.2824 21.3769 22.3752 21.5628 22.9323C21.9346 24.0464 22.0275 25.4391 22.2134 26.9246C22.4923 28.4101 21.7487 29.617 20.2616 29.7099C19.9122 29.7125 19.5654 29.6495 19.2392 29.5242C18.9604 29.5242 18.6816 29.3385 18.5886 28.9671L18.1239 27.7602C18.1239 27.3888 17.938 27.0174 17.8451 26.8317L14.5921 27.9458L11.8038 29.3385C9.85198 30.0812 7.71429 30.6383 5.76248 30.6383C4.7401 30.6383 3.53184 30.3598 2.7883 30.0812C2.04475 29.8027 1.85886 29.5242 1.67298 28.5957C1.4736 26.927 1.69732 25.2349 2.32358 23.675C2.60241 23.118 2.88124 22.7466 3.25301 22.5609C3.67145 22.3888 4.10793 22.2643 4.55422 22.1896C5.01893 22.0039 5.39071 22.0039 5.85542 22.0039L6.8778 22.1896C7.43546 22.4681 7.5284 22.8395 7.5284 23.3965V24.882C8.27194 24.9749 9.66609 24.882 10.3167 24.7892C10.999 24.6346 11.6561 24.3845 12.2685 24.0464C13.012 23.7679 13.9415 23.0251 15.0568 22.4681L15.1497 22.5609ZM37.2702 34.9091L37.4561 36.0232V37.9729C37.2702 39.087 37.4561 40.294 37.2702 41.4081L37.0843 43.6364C37.0843 43.9149 37.0843 44.0077 37.3632 44.0077C37.9208 44.1934 38.2926 44.1934 38.5714 44.1934C39.4079 44.1934 39.9656 43.822 39.8726 43.3578L39.6867 42.4294C39.5009 41.501 39.5009 41.1296 39.5009 40.2012H39.6867L40.3373 42.8008C40.5232 43.3578 40.3373 44.3791 40.5232 44.9362C41.9174 45.1219 43.5904 44.9362 44.241 44.9362C44.241 43.7292 44.241 42.5222 43.7762 42.058L42.568 41.1296C41.9861 40.6917 41.4832 40.1579 41.0809 39.5513C40.4303 38.6228 40.3373 38.2514 39.7797 37.323L38.5714 35.1876C38.4387 34.956 38.283 34.7383 38.1067 34.5377L36.8055 34.2592C36.1549 34.2592 35.7831 34.1663 35.4114 33.795C35.1325 33.4236 35.0396 33.2379 35.2255 32.8665C35.2255 32.588 35.2255 32.4952 35.0396 32.3095C34.8537 32.0309 34.8537 31.8453 35.0396 31.6596C35.5043 31.2882 36.062 30.824 36.7126 30.7311C36.7433 30.7363 36.7747 30.7363 36.8055 30.7311L36.7126 30.1741L35.5972 30.3598C34.7608 30.3598 34.1102 29.9884 33.8313 28.9671L33.0878 27.1103C33.0878 26.8317 33.0878 26.5532 33.2737 26.1818L32.6231 25.2534C32.1583 25.0677 31.6936 24.882 31.4148 24.5106C31.2289 24.325 31.136 24.325 31.043 24.4178L30.7642 24.6963C30.5783 24.882 30.2995 24.882 30.0207 24.6963C29.7418 24.6963 29.5559 24.325 29.5559 24.0464C29.5559 23.675 29.8348 23.3965 29.5559 23.2108C29.3701 22.9323 29.0912 22.5609 29.463 22.2824L29.8348 22.1896C30.0131 22.0933 30.1551 21.9413 30.239 21.757C30.3229 21.5726 30.3441 21.3658 30.2995 21.1683C30.2995 20.7969 30.1136 20.7041 29.7418 20.7041C29.2771 20.7041 29.0912 20.4255 29.0912 20.147C29.0912 19.7756 29.463 19.5899 29.7418 19.6828C29.8348 19.6828 30.0207 19.6828 30.1136 19.8685C30.1136 19.9613 30.2065 20.147 30.3924 20.147C30.8571 20.147 31.3219 19.5899 31.3219 19.1257C31.3219 18.94 31.136 18.8472 30.7642 18.94C30.2065 18.94 29.463 19.2186 28.7194 19.4971C28.3477 19.6828 28.2547 19.9613 28.5336 20.3327L28.6265 20.6112C28.7194 20.7969 28.7194 20.8897 28.6265 20.9826L28.3477 21.0754C28.1618 21.2611 28.1618 21.4468 28.3477 21.7253C28.3708 21.7909 28.402 21.8532 28.4406 21.911C28.6265 22.0967 28.6265 22.1896 28.4406 22.3752C28.2547 22.5609 28.2547 22.8395 28.3477 23.118L28.5336 24.7892V26.646C28.5336 27.0174 28.8124 27.3888 29.1842 27.853L30.5783 29.4313C31.2699 30.0561 31.7011 30.9177 31.7866 31.8453C31.7866 32.3095 31.9725 32.4952 32.4372 32.7737C33.3666 33.0522 33.7384 33.5164 33.8313 34.2592C34.0172 35.559 33.3666 36.766 32.2513 36.6731C31.6936 36.6731 31.3219 36.2089 31.3219 35.9304C31.3219 35.6518 31.5077 35.2805 31.7866 35.1876C31.8787 35.1701 31.9733 35.1701 32.0654 35.1876C32.0758 35.2491 32.0758 35.3118 32.0654 35.3733L31.9725 35.7447V36.2089C32.1583 36.3017 32.3442 36.3946 32.6231 36.3017C32.8089 36.3017 32.9948 36.0232 33.1807 35.7447C33.6454 34.8162 33.3666 33.7021 32.3442 33.4236H31.3219C30.6713 33.8878 30.1136 34.0735 29.5559 34.5377C29.5233 34.5942 29.5061 34.6582 29.5061 34.7234C29.5061 34.7886 29.5233 34.8526 29.5559 34.9091C29.5515 37.0191 29.6757 39.1275 29.9277 41.2224L30.1136 41.9652L30.3924 42.2437L30.6713 41.9652L31.136 41.2224H31.3219L31.4148 41.3153V42.8008L31.6936 43.0793L31.8795 42.8008L31.9725 42.3366C32.0102 42.303 32.0544 42.2774 32.1023 42.2614C32.1502 42.2455 32.2009 42.2394 32.2513 42.2437V43.1721L32.5301 43.3578L32.716 43.0793L32.9948 42.6151L33.6454 42.058C33.7362 42.0295 33.8335 42.0295 33.9243 42.058C33.9347 42.1195 33.9347 42.1823 33.9243 42.2437L33.4596 43.3578L33.2737 43.822H33.5525C33.5525 43.822 33.7384 43.8221 33.7384 43.6364V43.4507L34.0172 43.1721C34.1117 43.2387 34.178 43.338 34.2031 43.4507L34.389 43.9149L34.6678 44.1006L34.8537 44.0077L35.0396 43.4507L35.3184 43.5435L35.5043 43.9149L36.6196 44.0077V40.7582L36.8984 37.7872L37.0843 35.0019H37.2702V34.9091ZM51.2117 15.9691L49.8176 15.8762C49.5387 15.8762 48.9811 15.8762 48.9811 16.1547L49.2599 16.4333C49.9105 16.8975 51.8623 16.9903 52.6059 16.8975C52.641 16.7135 52.641 16.5245 52.6059 16.3404C52.327 15.7834 51.6764 15.2263 51.0258 15.0406C50.3752 14.8549 49.5387 14.8549 48.9811 15.0406L48.7952 14.5764C48.9655 13.7182 48.9655 12.835 48.7952 11.9768C48.7952 11.5126 48.7022 11.3269 48.4234 11.0484C48.3305 10.8627 48.1446 10.8627 48.0516 11.0484C47.8847 11.1563 47.729 11.2807 47.5869 11.4197C46.9363 12.2553 47.0293 12.7195 47.1222 13.9265L47.494 14.0193C47.7728 14.0193 47.7728 14.0193 47.7728 13.648L47.8657 12.7195C47.8879 12.6536 47.9192 12.5911 47.9587 12.5338L48.2375 12.7195V13.0909C48.2375 13.7408 47.9587 14.205 47.9587 14.4836C47.9587 14.5764 48.4234 14.7621 48.3305 14.9478C48.3305 15.1335 47.5869 15.2263 47.1222 15.3191C46.8434 14.9478 46.5645 14.5764 46.0069 14.3907C45.7281 14.2979 45.3563 14.205 45.6351 14.0193L46.0069 13.8337C46.6575 13.5551 46.4716 13.1838 46.3787 12.5338C46.3787 12.3482 46.2857 12.2553 46.0998 12.2553C45.7281 12.2553 45.5422 12.2553 45.1704 12.441L44.7986 12.8124L44.0551 13.648H43.7762V13.4623L44.3339 11.9768C44.3339 11.6983 44.5198 11.6054 44.7057 11.6054C45.1858 11.759 45.6987 11.7797 46.1897 11.6653C46.6807 11.5508 47.1315 11.3055 47.494 10.9555C47.6799 10.5841 47.6799 10.4913 47.3081 10.2128C46.7504 9.74855 46.0069 9.47002 45.1704 9.74855C45.0249 9.80845 44.8969 9.90429 44.7986 10.0271L44.6127 10.3985H45.6351L45.9139 10.3056L46.0998 10.3985L45.9139 10.5841L45.3563 10.677L44.241 10.9555C44.0551 11.0484 43.9621 10.9555 43.9621 10.7698C43.9621 10.4913 43.9621 10.2128 44.241 10.0271C44.7057 9.65571 44.9845 9.19149 45.1704 8.63443C45.1704 8.26306 44.8916 7.79884 44.7986 7.52031V7.33462L46.0069 7.89168C46.1928 8.91296 46.8434 9.65571 47.8657 9.93424L48.7952 10.3056C49.167 10.3056 49.3528 10.3056 49.3528 9.93424V9.47002L50.0034 9.28433C50.5611 9.28433 51.1188 9.56286 51.6764 9.74855L51.8623 10.0271H51.5835C51.1188 10.0271 50.747 9.84139 50.3752 9.74855C50.0964 9.74855 49.9105 9.84139 49.8176 10.1199C50.0034 10.3985 50.747 10.7698 51.1188 10.8627C51.4905 10.9555 52.9776 11.1412 52.9776 10.7698C52.9609 10.3618 52.8985 9.95701 52.7917 9.56286C52.7917 9.19149 52.42 9.0058 52.1411 8.91296C51.4905 8.72727 51.0258 8.63443 50.2823 8.63443H50.0034L49.2599 8.91296V8.44874C49.074 7.79884 48.7952 7.706 48.3305 7.52031V7.05609C48.7952 6.77756 49.2599 6.40619 49.4458 6.12766L48.7952 5.75629C48.2375 5.5706 48.1446 5.29207 47.6799 5.10638C47.3829 4.99195 47.0686 4.92915 46.7504 4.9207C46.3787 4.9207 45.9139 4.9207 45.821 5.10638C45.821 5.10638 45.821 5.29207 46.0069 5.38491C46.2857 5.66344 46.9363 5.75629 47.2151 6.03482H47.3081L47.2151 6.12766C46.7966 6.12659 46.3836 6.03139 46.0069 5.84913L45.6351 5.5706C45.3563 5.47776 45.2633 5.5706 45.0775 5.84913C44.9845 6.12766 45.0775 6.2205 45.3563 6.31335C46.0069 6.68472 46.4716 6.96325 47.3081 7.05609L47.494 7.42747C47.1525 7.40481 46.8116 7.37385 46.4716 7.33462C46.2487 7.29617 46.0306 7.23391 45.821 7.14894L44.4268 6.40619L43.4974 6.12766C43.4045 6.03482 43.3115 5.94197 43.4974 5.84913L46.0069 4.27079H46.4716C46.8434 4.27079 47.0293 4.45648 47.401 4.54932C47.6799 4.64217 47.8657 4.73501 47.9587 4.54932C48.0193 4.05884 48.1773 3.58538 48.4234 3.15667C48.7952 2.59961 49.3528 2.32108 50.0034 1.85687C50.3752 1.02128 51.2117 0.0928433 51.4905 0.0928433C52.42 0.0928433 53.1635 1.57834 53.3494 2.1354C53.4423 2.59961 52.7917 2.97099 53.2565 2.97099C53.6282 2.97099 54 2.97099 54 3.34236C54 3.89942 53.8141 4.54932 53.5353 4.9207C53.2565 5.29207 52.8847 5.84913 52.42 6.12766V6.31335C53.1635 6.77756 54 7.24178 54 7.98453C54 8.44874 53.9071 8.72727 53.6282 8.91296C53.4423 9.09865 53.2565 9.28433 53.2565 9.56286V10.9555C53.2565 11.3269 52.1411 11.4197 52.0482 11.6054C52.2153 12.5499 52.0854 13.5229 51.6764 14.3907L51.9552 14.8549C53.0706 15.6905 53.2565 16.4333 53.3494 16.9903C53.0706 17.3617 52.5129 17.6402 52.42 17.6402C51.5835 17.6402 50.0034 17.0832 49.6317 16.9903C49.5387 17.2689 49.6317 17.4545 49.7246 17.9188C49.9105 18.2901 50.1893 18.5687 50.1893 19.0329C50.1893 19.2186 50.1893 19.4971 49.6317 19.5899C48.7327 19.6544 47.8409 19.3904 47.1222 18.8472L46.7504 18.6615C46.4716 18.4758 46.1928 18.6615 46.0998 18.8472L45.9139 19.4043C45.821 19.7756 45.6351 19.7756 45.2633 19.6828C44.0551 19.4043 43.4974 18.1973 43.4974 17.0832L43.5904 16.8975L43.7762 16.9903C43.7762 17.2689 43.7762 17.4545 43.9621 17.6402C43.9621 17.9188 44.0551 18.2901 44.241 18.5687C44.5198 18.94 44.7986 19.2186 45.1704 19.2186C45.3563 19.2186 45.4492 19.1257 45.5422 18.8472C45.821 18.383 46.0998 17.9188 46.0069 17.3617C46.0069 17.176 45.9139 16.8975 45.7281 16.7118L45.3563 16.3404L45.6351 16.1547C46.1928 16.4333 46.5645 16.3404 46.8434 16.1547C47.1222 16.1547 47.2151 15.9691 47.3081 15.7834C47.921 15.6282 48.5414 15.5043 49.167 15.412C49.9105 15.412 50.654 15.5048 51.3046 15.7834V15.9691H51.2117ZM19.5181 36.3017C19.8898 36.3017 20.4475 36.4874 20.4475 36.9516C20.4215 37.0159 20.3904 37.078 20.3546 37.1373C20.3238 37.1425 20.2924 37.1425 20.2616 37.1373C20.0757 36.766 19.7969 36.5803 19.3322 36.6731C18.9739 36.7624 18.6503 36.9564 18.4028 37.2302C18.2169 37.4159 18.4957 37.5087 18.7745 37.6944L19.2392 37.9729L18.9604 38.53C18.767 38.4529 18.5805 38.3597 18.4028 38.2514L18.6816 37.8801H19.2392C19.2392 38.3443 18.5886 39.9226 18.8675 40.0155C19.704 40.1083 20.7263 39.087 20.9122 37.5087C20.9122 36.9516 21.191 36.5803 21.8417 36.4874C22.4923 36.2089 22.7711 35.8375 22.7711 35.0948C22.6781 34.6306 22.864 34.8162 23.1429 34.4449L23.3287 34.1663C23.3287 34.352 23.5146 34.5377 23.4217 34.7234C23.2358 35.2805 23.4217 35.8375 23.7005 36.3946L24.3511 37.9729L24.7229 38.1586C25.1876 39.087 25.8382 40.6654 26.5818 41.3153C27.2324 41.8723 27.883 42.8008 28.4406 43.3578C28.9053 43.6364 29.0912 44.472 29.5559 44.6576C29.8348 44.6576 29.8348 44.9362 29.8348 45.2147C29.8348 45.4932 29.8348 45.5861 30.0207 45.5861H30.6713C30.8571 45.4932 31.043 45.5861 30.9501 45.7718C30.9501 45.8646 30.8571 45.9574 30.6713 45.9574H30.0207L29.7418 46.0503L29.8348 46.3288L30.9501 46.6073L31.136 46.7002L30.9501 46.9787C30.7969 47.0113 30.6386 47.0113 30.4854 46.9787C30.2065 46.9787 29.8348 46.7002 29.5559 46.6073L29.2771 46.3288H28.9053V46.793L28.9983 47.0716L28.7194 47.1644L27.883 46.6073C27.6041 46.4217 27.3253 46.4217 26.9535 46.6073L26.0241 47.2573C25.6523 47.4429 25.2806 47.9072 24.8158 47.9072C24.537 47.9072 23.8864 47.4429 23.7005 47.3501L22.3993 47.0716C21.9346 46.9787 21.4699 47.0716 21.0981 47.3501L19.2392 47.6286H16.4509C16.0719 47.6334 15.6957 47.696 15.3356 47.8143H14.9639C14.685 47.8143 14.4062 47.8143 14.2203 47.6286C14.0955 47.5547 13.9563 47.5082 13.8121 47.4922C13.6678 47.4762 13.5219 47.4911 13.3838 47.5358H12.4544C12.1756 47.1644 11.525 46.6073 11.2461 46.7002C10.1308 46.8859 9.57315 47.6286 8.45783 47.2573C7.71429 47.0716 7.24957 46.8859 6.50602 47.1644H5.57659C5.29776 47.1644 5.20482 47.1644 5.29776 46.793V46.7002C5.29776 46.4217 5.11188 46.1431 4.83305 46.236C4.46127 46.3288 4.27539 46.7002 3.99656 46.793C3.53184 47.0716 3.06713 46.9787 2.41652 46.793C2.04475 46.6073 1.67298 46.7002 1.3012 46.8859C1.02238 46.9787 0.650602 47.6286 0.371773 47.6286L0.0929432 47.4429V47.1644C0.185886 46.8859 0.557659 46.6073 0.743546 46.5145C1.39415 46.236 2.04475 46.1431 2.7883 46.236C3.16007 46.3288 3.53184 46.4217 3.81067 46.236C4.0895 46.1431 4.36833 46.1431 4.55422 45.9574C5.01893 45.7718 5.39071 45.5861 5.85542 45.7718C6.22719 45.5861 6.32014 45.4932 6.50602 45.2147V43.9149L6.97074 42.8008C6.97074 42.6151 7.15663 42.6151 7.24957 42.6151C7.62134 43.0793 7.99312 43.5435 7.80723 44.0077C7.71429 44.3791 8.36489 44.5648 8.27195 44.9362C8.179 45.1219 8.27194 45.3075 8.45783 45.3075H8.64372C8.8296 45.3075 8.8296 45.2147 8.8296 44.9362C8.83321 43.8803 8.61141 42.8358 8.179 41.8723L7.90017 41.1296C7.62134 40.6654 7.71429 40.2012 7.90017 39.7369L8.179 38.8085C8.34594 38.3614 8.67877 37.9957 9.10843 37.7872L9.38726 37.8801C10.0379 38.8085 10.3167 40.0155 9.94492 41.2224L9.75904 42.2437V42.5222L9.94492 42.3366C10.3167 41.8723 10.6885 41.4081 10.8744 40.8511C11.1532 40.294 11.6179 40.1083 12.1756 39.9226C12.7332 39.9226 12.9191 39.9226 12.7332 40.4797L12.4544 41.4081C12.4061 41.6802 12.2975 41.9381 12.1367 42.163C11.9759 42.3878 11.7669 42.574 11.525 42.7079C11.2461 42.7079 10.9673 42.9865 10.7814 43.1721C10.6808 43.2218 10.5871 43.2842 10.5026 43.3578V43.6364H10.9673C11.1532 43.3578 11.432 43.265 11.7108 43.0793L12.6403 42.5222C12.8262 42.5222 12.8262 42.5222 12.8262 42.8008C12.8262 43.0793 12.8262 43.4507 12.5473 43.5435L11.525 43.822C11.3511 43.9201 11.1942 44.0455 11.0602 44.1934L10.6885 44.9362V45.2147H10.9673L11.8967 44.2863C12.1756 44.1006 12.2685 44.1934 12.3614 44.472C12.3911 44.6094 12.4551 44.7371 12.5473 44.8433L12.9191 44.5648L13.105 44.1934C13.105 43.9149 13.5697 42.8008 13.8485 42.4294L14.1274 42.5222V43.7292C14.1274 44.1934 14.2203 44.2863 14.5921 44.1006L15.5215 43.6364L15.7074 43.5435H15.9862V43.822L15.6145 44.2863V44.6576H15.8933L16.5439 44.2863H17.5663L18.5886 44.6576C18.8675 44.6576 19.2392 44.6576 19.5181 44.472C19.9657 44.2462 20.4322 44.0598 20.9122 43.9149C21.6111 43.6951 22.2481 43.3133 22.7711 42.8008L23.1429 42.5222C23.3287 42.4294 23.4217 41.9652 23.4217 41.8723V40.0155L23.6076 39.6441H23.7935V42.8936C23.7935 43.0793 23.5146 43.3578 23.3287 43.3578C22.2134 43.822 21.0052 44.2863 19.7969 44.5648C19.2392 44.7505 18.6816 44.6576 18.1239 44.6576H16.8227C16.4509 44.6576 15.9862 45.029 15.6145 45.029L12.8262 45.3075L10.3167 45.9574C10.1132 46.0099 9.92313 46.1048 9.75904 46.236L9.66609 46.4217L9.94492 46.5145H10.5026C11.0601 46.4993 11.618 46.4993 12.1756 46.5145L12.5473 46.7002C12.8262 46.8859 13.105 46.8859 13.4768 46.8859C13.7556 46.793 14.0344 46.8859 14.3133 47.0716C14.778 47.4429 14.8709 47.4429 15.4286 47.1644C15.8933 46.8859 16.358 46.8859 16.8227 46.9787C17.3804 46.9787 17.938 46.9787 18.4957 47.1644L19.7969 47.3501C20.6334 47.3501 21.284 47.2573 21.7487 46.6073L22.4923 45.5861C22.6781 45.3075 22.864 45.2147 23.1429 45.2147L25.0017 45.029C25.2806 45.029 25.4664 45.4004 25.4664 45.5861C25.4664 45.7718 25.3735 45.9574 25.1876 45.8646H23.7935C23.3287 45.7718 22.957 45.8646 22.6781 46.236C22.4923 46.4217 22.5852 46.5145 22.7711 46.6073H23.1429C23.3287 46.6073 23.4217 46.793 23.5146 46.9787C23.5146 47.1644 23.8864 47.2573 24.3511 47.2573L25.8382 47.1644C26.0241 47.1644 26.21 46.793 26.3959 46.6073C26.7676 46.1431 26.9535 45.9574 27.6041 46.1431C28.0688 46.1431 28.3477 45.7718 28.7194 45.7718C29.1842 45.7718 28.9983 45.1219 28.8124 44.8433C28.6314 44.5103 28.4131 44.1988 28.1618 43.9149C27.5112 43.4507 27.0465 42.5222 26.4888 41.7795C26.0241 41.3153 25.5594 41.0368 25.1876 40.4797C24.8952 39.9923 24.6163 39.4969 24.3511 38.9942L23.7935 37.8801L23.2358 37.0445C22.957 36.766 22.3064 37.0445 21.9346 37.1373L21.5628 37.4159C22.4923 38.1586 22.4923 39.2727 22.2134 40.0155C22.2134 40.294 22.0275 40.294 21.7487 40.2012L21.0981 39.9226H20.5404L18.8675 40.8511C18.5886 40.4797 18.1239 39.6441 18.1239 39.2727C18.1239 38.9014 18.3098 38.6228 18.4028 38.3443C18.0789 38.183 17.7682 37.9967 17.4733 37.7872V37.5087C18.1239 36.9516 18.8675 36.3946 19.5181 36.3946V36.3017ZM1.95181 28.1315C2.04475 28.6886 2.32358 29.06 2.88124 29.3385C3.53184 29.7099 4.55422 29.8027 5.39071 29.8955L8.73666 29.617C10.5026 29.2456 12.5473 28.5029 14.1274 27.7602C15.1566 27.2004 16.2486 26.7641 17.3804 26.4603C18.5406 26.177 19.752 26.177 20.9122 26.4603C21.4699 26.4603 21.5628 26.4604 21.5628 26.089L21.3769 25.3462C21.284 24.4178 21.284 23.675 20.9122 22.8395C20.9122 22.7466 20.7263 22.5609 20.4475 22.4681C20.1687 22.2824 19.8898 22.1896 19.5181 22.1896C18.9326 22.1032 18.3376 22.1032 17.7522 22.1896C16.8154 22.325 15.9058 22.607 15.0568 23.0251L12.5473 24.4178C11.4213 25.083 10.1378 25.4356 8.8296 25.4391L6.41308 25.3462C5.18171 25.3004 3.97569 24.9834 2.88124 24.4178C2.69535 24.2321 2.50947 24.325 2.41652 24.6035L2.23064 25.2534C2.04475 25.9961 1.85886 27.1103 1.95181 28.1315ZM43.3115 37.8801C42.7558 37.9397 42.1974 37.9707 41.6386 37.9729L41.8244 37.7872C42.2892 37.6015 42.7539 37.4159 43.0327 37.1373C43.2186 36.9516 43.2186 36.8588 43.2186 36.6731C42.626 36.9391 42.001 37.1264 41.3597 37.2302H41.1738L42.7539 36.1161C43.0327 35.9304 42.7539 35.8375 42.7539 35.7447L41.0809 36.3017H40.988L41.2668 36.0232L42.8468 35.0948V34.9091H42.568L40.7091 35.0948H40.5232C40.5154 35.0643 40.5154 35.0324 40.5232 35.0019C40.9082 34.8215 41.2552 34.5694 41.5456 34.2592C41.6386 34.0735 41.6386 33.9807 41.5456 33.8878L41.2668 34.0735L40.2444 34.1663V33.9807L40.988 33.5164L41.4527 33.1451V32.9594C41.0597 33.0904 40.6551 33.1837 40.2444 33.2379C40.1526 33.258 40.0574 33.258 39.9656 33.2379L40.0585 33.0522L41.3597 32.4023C41.5456 32.3095 41.6386 32.1238 41.6386 32.0309H41.4527L40.2444 32.4023L39.9656 32.2166L40.1515 32.0309L41.8244 31.2882L42.7539 30.5455L43.3115 29.9884V29.8955C42.3821 30.3598 42.1033 30.6383 41.8244 30.824C41.3556 31.122 40.8573 31.3708 40.3373 31.5667C40.2678 31.5541 40.2033 31.5219 40.1515 31.4739C40.1437 31.4122 40.1437 31.3499 40.1515 31.2882C40.3373 31.2882 40.6162 30.9168 40.8021 30.6383L42.475 29.8027L43.3115 29.2456V28.8743L41.4527 29.8027V29.5242C41.9174 29.2456 42.568 28.7814 43.0327 28.2244V28.0387L42.7539 28.1315L41.8244 28.5029H41.7315L41.8244 28.1315C42.2869 27.7936 42.6944 27.3865 43.0327 26.9246V26.5532C42.6609 26.8317 42.1962 27.0174 41.8244 27.1103H41.7315V26.9246C42.1962 26.4603 42.568 26.1818 42.8468 25.7176V25.5319L41.8244 25.8104H41.6386V25.5319L42.475 24.6035V24.4178C42.2599 24.4597 42.0427 24.4907 41.8244 24.5106C41.7315 24.5106 41.6386 24.5106 41.5456 24.325L41.8244 24.2321L42.1962 23.9536C42.2721 23.9074 42.3358 23.8437 42.3821 23.7679L42.1033 23.675L41.2668 23.7679C40.7091 23.9536 40.7091 23.9536 40.6162 24.1393L39.9656 26.1818C39.9656 26.3675 39.7797 26.5532 39.5938 26.646C39.315 26.7389 39.4079 26.9246 39.315 27.1103C39.222 27.6673 39.1291 27.6673 38.9432 28.0387L38.3855 28.9671H38.1997V28.3172L37.9208 27.4816V27.1103L38.0138 26.2747L38.1067 24.6963L38.0138 24.6035C37.9657 24.6553 37.9335 24.7197 37.9208 24.7892L37.642 25.9033C37.4561 26.7389 37.642 27.3888 37.642 28.2244C37.5491 28.8743 37.3632 29.5242 37.4561 30.1741V30.5455L38.1067 30.3598C38.5714 30.1741 38.9432 30.1741 39.4079 29.7099C39.6867 29.4313 39.6867 28.8743 39.7797 28.4101C39.9656 27.853 40.1515 27.6673 40.3373 27.4816L40.5232 27.5745L40.2444 28.4101C40.1515 28.6886 39.9656 29.1528 40.2444 29.2456H40.5232V29.4313C40.2444 29.7099 39.9656 30.0812 38.6644 30.4526C38.4785 30.4526 38.1067 30.9168 38.1067 31.1025C38.0717 31.3799 38.0717 31.6607 38.1067 31.9381C38.2926 33.2379 38.9432 34.5377 39.6867 35.8375C40.3373 36.8588 40.8021 37.6944 41.5456 38.4371C41.8244 38.7157 42.1962 38.9014 42.7539 38.7157L43.4974 38.2514V37.9729L43.3115 37.8801ZM24.7229 18.2901C24.7229 18.7544 24.7229 18.94 23.9793 18.7544L23.3287 18.6615C23.0499 18.5687 22.7711 18.4758 22.5852 18.1973C22.3064 17.8259 21.9346 17.8259 21.6558 18.1973L21.3769 18.383L21.1911 18.5687V18.2901C21.1911 17.9188 21.3769 17.7331 21.6558 17.5474L22.3993 17.2689C23.0499 17.0832 23.3287 16.7118 23.3287 15.9691L23.4217 14.5764C23.4217 14.2979 23.4217 14.205 23.0499 14.2979L21.4699 14.9478C21.3855 14.9804 21.3088 15.0303 21.2448 15.0943C21.1808 15.1582 21.1308 15.2348 21.0981 15.3191L20.7263 16.1547L20.6334 16.2476L20.4475 16.1547L20.0757 15.5977C19.9605 15.3762 19.8365 15.1594 19.704 14.9478C19.4251 14.6692 19.4251 14.5764 19.704 14.3907L20.6334 13.648C21.0052 13.2766 21.1911 12.7195 21.1911 12.1625V11.234C21.1911 10.8627 21.1911 10.7698 21.6558 10.8627C21.8417 10.8627 22.1205 10.8627 22.3064 11.0484L23.5146 11.6054C23.7005 11.7911 23.8864 11.9768 23.8864 12.1625C23.8864 12.5338 23.7005 12.7195 23.4217 12.6267C23.0012 12.4371 22.566 12.2819 22.1205 12.1625C21.8417 12.1625 21.6558 12.1625 21.5628 12.441C21.5628 12.9052 21.9346 12.9052 21.9346 13.0909C21.7487 13.4623 21.1911 13.5551 21.0981 13.9265C21.0981 14.205 21.0981 14.3907 21.3769 14.2979L22.2134 14.0193L23.3287 13.4623C23.7935 13.2766 24.0723 13.3694 24.1652 13.9265L24.8158 17.7331V18.2901H24.7229ZM35.8761 14.2979C35.8776 13.9389 35.9737 13.5866 36.1549 13.2766C36.3408 13.2766 36.5267 13.2766 36.6196 13.4623C36.8984 14.1122 37.4561 14.7621 38.1997 15.1335C38.3855 15.3192 38.6644 15.3191 38.8503 15.3191L39.0361 14.1122C39.0361 13.648 38.8503 13.1838 38.4785 12.9052C38.1997 12.5338 37.7349 12.2553 37.3632 11.9768L36.8984 12.0696V12.441C37.0843 12.7195 37.5491 12.9981 37.642 13.2766V13.5551C37.5738 13.5386 37.5103 13.5069 37.4561 13.4623C37.2629 13.3165 37.0768 13.1616 36.8984 12.9981C36.6233 12.7794 36.3738 12.5302 36.1549 12.2553C35.969 12.0696 35.7831 12.0696 35.6902 12.2553C35.3184 12.9052 35.0396 13.5551 35.0396 14.2979C34.8537 15.2263 35.3184 16.0619 36.062 16.4333C36.4337 16.619 36.7126 16.5261 36.8984 16.2476L37.2702 15.3191V14.9478L36.6196 14.2979C36.5387 14.2196 36.4442 14.1567 36.3408 14.1122C36.3251 14.1731 36.3251 14.237 36.3408 14.2979V15.2263C36.3512 15.2878 36.3512 15.3505 36.3408 15.412C36.253 15.3854 36.1732 15.3376 36.1083 15.2728C36.0435 15.208 35.9956 15.1283 35.969 15.0406L35.8761 14.3907V14.2979ZM4.18244 3.24952L4.64716 3.89942C4.92599 4.27079 5.01893 4.64217 5.11188 5.01354C5.20482 5.29207 5.39071 5.29207 5.57659 5.19923C5.69061 5.13348 5.78511 5.03866 5.85043 4.92448C5.91575 4.81029 5.94954 4.68083 5.94837 4.54932C5.90268 4.28652 5.8081 4.03459 5.66954 3.80658C5.48365 3.15667 5.66954 2.50677 6.22719 2.04255C6.50602 1.94971 6.59897 1.67118 6.59897 1.39265L6.32014 0.464217C6.32014 0.27853 6.04131 0.27853 5.94837 0.371373C5.20482 0.742747 4.36833 1.76402 5.01893 2.69246V2.87814C4.92617 2.88635 4.83286 2.88635 4.7401 2.87814L3.4389 1.57834C3.27102 1.45319 3.08219 1.35888 2.88124 1.29981C2.88124 1.39265 2.69535 1.76402 2.88124 2.50677C2.88124 3.15667 3.06713 3.80658 3.53184 4.73501L3.99656 5.29207L4.55422 5.47776V4.9207C4.44974 4.48211 4.32569 4.04841 4.18244 3.62089L4.0895 3.24952H4.18244ZM51.1188 5.94197L52.1411 5.5706C52.9776 5.29207 53.4423 4.73501 53.6282 3.89942C53.7212 3.62089 53.6282 3.52805 53.3494 3.4352L52.7917 3.34236C52.327 3.15667 52.2341 3.34236 52.0482 3.89942C51.8623 4.27079 51.6764 4.73501 51.3046 5.01354C51.2117 5.10638 50.747 4.82785 50.654 4.73501C51.3976 4.27079 51.9552 3.52805 52.327 2.59961C52.327 2.50677 52.327 2.32108 52.1411 2.22824C51.8659 2.16476 51.5799 2.16476 51.3046 2.22824C50.3752 2.22824 48.9811 3.15667 48.5163 4.27079C48.4234 4.36364 48.5163 4.64217 48.5163 4.64217H49.074L49.167 4.45648C49.5387 3.80658 50.0964 3.52805 50.747 3.24952H50.9329C50.9541 3.30959 50.9541 3.37513 50.9329 3.4352C50.852 3.51346 50.7575 3.57638 50.654 3.62089L50.0034 4.08511L49.5387 4.45648V4.73501L49.8176 4.82785H50.1893L50.5611 5.47776C50.654 5.66344 50.8399 5.84913 51.1188 5.84913V5.94197ZM33.9243 5.66344C33.9243 5.94197 33.7384 6.12766 33.5525 6.03482C32.9948 5.84913 32.6231 5.29207 32.0654 5.10638C31.8795 5.01354 31.7866 5.10638 31.6936 5.38491L31.5077 6.68472C31.5077 7.61315 31.9725 7.98453 32.4372 8.44874V8.72727L30.5783 9.65571C30.4854 9.74855 30.2065 9.84139 30.0207 9.65571C29.8348 9.56286 29.8348 9.37718 29.8348 9.09865L30.4854 6.40619C30.8571 5.01354 31.4148 4.54932 32.4372 4.45648H33.3666C33.6454 4.45648 33.8313 4.45648 33.8313 4.73501V5.66344H33.9243ZM35.2255 11.8839C35.2255 11.234 34.6678 10.9555 34.4819 10.3985C34.2031 9.84139 34.0172 9.84139 33.5525 10.3056C33.0878 10.7698 32.716 11.234 32.6231 11.8839C32.3442 12.5338 32.4372 13.1838 32.6231 13.8337C32.6231 14.0193 32.716 14.2979 32.9948 14.205C33.0593 14.1687 33.1115 14.1139 33.1446 14.0477C33.1777 13.9816 33.1903 13.907 33.1807 13.8337C33.1807 13.2766 33.2737 12.7195 33.5525 12.3482L33.8313 12.0696V12.441L33.6454 13.648V14.3907C33.9243 14.6692 34.0172 14.6692 34.1102 14.4836C34.6678 13.648 35.2255 12.441 35.2255 11.8839ZM6.22719 13.7408C6.22719 13.0909 6.04131 12.6267 5.85542 12.0696C5.66954 11.5126 5.29776 11.234 5.11188 11.234C4.83305 11.234 4.36833 11.7911 4.18244 12.1625C4.06326 12.5531 4.03153 12.9652 4.0895 13.3694C4.0895 14.1122 4.27539 14.7621 4.7401 15.412C4.7401 15.5977 5.01893 15.7834 5.20482 15.5977L5.85542 14.9478C6.04131 14.5764 6.22719 14.1122 6.22719 13.7408ZM31.3219 31.6596C31.136 30.5455 30.3924 29.8027 29.6489 29.2456L29.2771 28.9671H28.9053V29.2456L29.0912 31.4739L29.2771 33.0522C29.2771 33.3308 29.463 33.4236 29.7418 33.3308L30.7642 32.7737C31.043 32.588 31.3219 32.4023 31.136 31.6596H31.3219ZM42.1962 20.7969C42.0103 20.3327 41.7315 20.147 41.2668 20.0542H40.7091L39.8726 19.8685C39.5938 19.8685 39.4079 20.147 39.315 20.5184V20.7041L39.8726 20.8897L40.1515 21.2611C40.1515 21.354 39.9656 21.5397 39.6867 21.5397C39.4079 21.5397 39.4079 21.8182 39.5009 22.0967C39.5009 22.3752 39.5938 22.6538 39.8726 22.9323L40.2444 22.6538C40.4303 22.4681 40.4303 22.2824 40.4303 22.0967C40.4303 21.4468 40.7091 21.0754 41.1738 20.6112L40.988 21.6325C40.895 22.3752 40.6162 22.9323 39.9656 23.4894H40.2444C40.3598 23.512 40.479 23.507 40.5921 23.4747C40.7052 23.4424 40.809 23.3838 40.895 23.3037C41.1738 23.0251 41.3597 22.7466 41.4527 22.3752L41.6386 22.0039L41.7315 22.2824V23.2108L42.1033 22.9323C42.3821 22.2824 42.475 21.354 42.1962 20.7969ZM50.9329 6.59188H50.2823C50.2823 6.59188 50.0964 6.96325 50.2823 6.96325C50.2823 7.05609 50.3752 7.14894 50.5611 7.14894C50.9329 7.14894 51.2117 7.14894 51.6764 7.33462L51.9552 7.42747L51.7694 7.52031C51.1188 7.61315 50.654 7.706 50.0964 7.33462L49.9105 7.24178C49.7246 7.14894 49.6317 7.24178 49.7246 7.42747C49.7246 7.706 50.0034 7.98453 50.5611 8.17021C50.9329 8.3559 51.3046 8.54159 51.6764 8.54159L53.0706 8.44874C53.3494 8.44874 53.6282 8.26306 53.6282 8.07737L53.5353 7.52031L53.1635 7.14894C52.6059 6.59188 52.2341 6.2205 51.3046 6.2205C51.3046 6.2205 51.1188 6.59188 50.9329 6.59188ZM51.4905 12.8124L51.3976 11.8839C51.2117 11.234 50.654 10.7698 50.0034 10.7698C49.6317 10.7698 49.5387 10.7698 49.6317 11.1412L50.0964 11.7911C50.2823 12.1625 50.4682 12.441 50.4682 12.7195C50.4633 12.8484 50.4317 12.9749 50.3752 13.0909C50.0964 12.9981 50.0034 12.7195 50.0034 12.6267C49.9105 12.3482 49.9105 12.1625 49.7246 11.9768C49.7246 11.7911 49.6317 11.7911 49.5387 11.7911C49.4458 11.7911 49.3528 11.7911 49.3528 11.9768C49.3528 12.7195 49.4458 13.648 50.2823 14.2979L50.8399 14.6692C51.0258 14.7621 51.1188 14.6692 51.2117 14.4836C51.3894 13.944 51.4834 13.3804 51.4905 12.8124ZM5.66954 9.09865L5.48365 10.3056C5.48365 10.677 5.66954 10.9555 6.04131 11.0484C6.97074 11.5126 8.08606 11.6054 9.10843 11.6054L9.29432 11.4197L9.20138 11.234H8.92255L7.5284 10.5841C7.39203 10.5511 7.26493 10.4876 7.15663 10.3985C7.06368 10.2128 7.15663 10.0271 7.34251 10.0271L7.80723 10.1199L8.73666 10.5841C8.73666 10.677 8.82961 10.7698 8.92255 10.5841C9.01549 10.4913 9.10843 10.3985 8.92255 10.2128L8.27195 9.65571C7.5284 9.37718 6.78485 9.09865 5.66954 9.19149V9.09865ZM27.1394 14.4836C27.1394 15.2263 27.1394 16.0619 26.9535 16.8975L26.6747 17.176L26.3959 16.8975C26.0241 15.8762 25.6523 14.8549 25.4664 13.7408L25.1876 13.0909C25.1876 12.8124 25.1876 12.7195 25.4664 12.8124C26.0241 12.8124 26.3959 13.0909 26.9535 13.2766L27.0465 13.648V14.3907L27.1394 14.4836ZM3.99656 19.0329V18.4758L4.18244 17.5474C4.20024 17.4242 4.20024 17.2992 4.18244 17.176L3.53184 17.2689C3.34596 17.3617 3.25301 17.5474 3.25301 17.9188V18.8472L3.4389 20.3327C3.4389 20.6112 3.62478 20.7041 3.81067 20.5184L4.27539 20.0542L5.20482 18.94C5.57659 18.5687 5.57659 18.1973 5.48365 17.8259C5.39071 17.5474 5.20482 17.4545 5.01893 17.4545C4.7401 17.4545 4.64716 17.6402 4.55422 17.8259C4.55422 18.1045 4.36833 18.2901 4.27539 18.5687C4.19775 18.7321 4.10437 18.8876 3.99656 19.0329ZM46.9363 17.176H47.8657C48.3305 17.3617 48.5163 17.6402 48.6093 17.8259L48.7022 18.1045C48.5653 18.1558 48.4182 18.1742 48.2729 18.158C48.1275 18.1419 47.988 18.0917 47.8657 18.0116C47.725 17.8711 47.5692 17.7465 47.401 17.6402C47.1222 17.5474 46.7504 17.4545 46.4716 17.6402C46.4716 17.8259 46.7504 18.1973 46.9363 18.383C47.5869 18.8472 47.8657 18.94 48.4234 18.94H49.3528L49.4458 18.4758C49.4458 17.9188 49.4458 17.3617 48.9811 16.8975C48.4234 16.3404 47.5869 16.4333 47.1222 16.619C46.9877 16.657 46.8616 16.72 46.7504 16.8046C46.7823 16.9143 46.8472 17.0116 46.9363 17.0832V17.176ZM27.6041 2.32108H27.6971V2.59961C27.6041 3.06383 27.3253 3.4352 26.9535 3.80658C26.7676 3.89942 26.7676 4.17795 26.9535 4.27079C27.1394 4.54932 27.4182 4.27079 27.6041 4.17795C27.9759 3.71373 28.1618 3.24952 28.3477 2.69246C28.6265 2.1354 28.6265 1.29981 28.3477 0.83559C28.1618 0.649903 27.883 0.55706 27.6971 0.742747C27.1394 1.29981 26.5818 2.1354 26.5818 2.97099L26.6747 3.34236L27.1394 2.97099L27.6041 2.41393V2.32108ZM38.9432 24.882H39.1291L39.222 25.9033V26.1818L39.5009 25.9961L39.5938 25.3462C39.9656 24.4178 39.6867 23.675 39.315 22.7466C39.315 22.5609 39.1291 22.5609 38.9432 22.6538C38.8503 22.6538 38.7573 22.8395 38.8503 22.9323V23.3037L38.4785 24.2321L38.3855 24.6963L38.2926 28.0387V28.1315C38.2713 28.1916 38.2713 28.2571 38.2926 28.3172C38.3598 28.2982 38.4229 28.2667 38.4785 28.2244L38.6644 27.6673C38.6644 27.1103 38.9432 27.1103 38.9432 26.5532V24.882ZM7.5284 3.62089C7.51588 3.55963 7.51588 3.49647 7.5284 3.4352H8.08606C8.36489 3.52805 8.45783 3.52805 8.55078 3.34236C8.73666 2.87814 8.64372 2.50677 8.27195 2.41393C8.026 2.37054 7.77435 2.37054 7.5284 2.41393L6.41308 2.69246C6.04131 2.7853 5.94836 3.15667 6.22719 3.4352C6.59897 3.80658 6.97074 4.27079 7.43546 4.54932C7.80723 4.9207 8.179 4.9207 8.64372 4.82785C8.8296 4.82785 8.92255 4.73501 8.92255 4.54932C8.93438 4.48438 8.93221 4.41766 8.91618 4.35362C8.90016 4.28958 8.87064 4.22969 8.8296 4.17795C8.74575 4.10342 8.6519 4.04092 8.55078 3.99226L7.5284 3.62089ZM6.8778 28.6886C6.8778 28.8743 6.78485 28.9671 6.50602 28.9671C6.19357 28.9744 5.88142 28.9432 5.57659 28.8743C5.29776 28.7814 5.29776 28.6886 5.20482 28.5029L5.29776 26.646L5.76248 26.3675L6.78485 26.5532C6.97074 26.5532 7.15663 26.9246 7.15663 27.0174V27.5745C7.15663 28.0387 6.97074 28.4101 6.8778 28.5957V28.6886ZM37.9208 45.4004L38.5714 45.5861C38.9432 45.6789 39.222 45.7718 39.5009 45.6789C39.6867 45.6789 39.8726 45.4932 39.8726 45.2147C39.8726 45.029 39.6867 44.8433 39.5009 44.7505L37.7349 44.3791C37.4561 44.2863 37.1773 44.2863 36.8984 44.472C36.5267 44.8433 36.062 45.029 35.5972 45.1219L35.2255 45.2147V45.4932L35.3184 45.6789H36.6196L37.9208 45.4004ZM40.988 47.2573C41.4527 47.2573 41.8244 47.1644 42.1033 46.9787L42.8468 46.5145L43.4045 46.3288C43.6833 46.3288 43.8692 46.0503 43.8692 45.9574C43.8692 45.6789 43.6833 45.6789 43.4974 45.5861L42.1033 45.4004H41.6386L40.7091 46.1431C40.6162 46.236 40.1515 46.4217 40.0585 46.7002C39.8726 46.793 39.8726 46.9787 40.2444 47.0716L40.988 47.2573ZM25.0947 10.9555C25.0947 10.677 25.4664 10.3056 25.7453 10.3985C25.776 10.3933 25.8074 10.3933 25.8382 10.3985L25.9312 10.9555L26.117 11.3269C26.6747 11.3269 27.2324 11.0484 27.4182 10.5841C27.79 10.1199 27.9759 9.65571 28.1618 9.19149C28.2547 9.0058 28.3477 8.82012 28.5336 8.91296C28.6265 8.91296 28.7194 9.09865 28.6265 9.28433L27.6971 12.0696C27.6041 12.3482 27.5112 12.3482 27.2324 12.2553L25.6523 11.6983C25.4963 11.6434 25.36 11.5436 25.2607 11.4114C25.1615 11.2792 25.1037 11.1205 25.0947 10.9555ZM36.8055 33.8878H37.0843C37.1878 33.8433 37.2823 33.7804 37.3632 33.7021L37.7349 33.2379L37.642 31.1954L37.4561 31.0097H36.6196L35.5043 31.9381C35.5043 31.9381 35.4114 32.1238 35.5043 32.1238L35.6902 32.2166L36.2478 31.9381L36.6196 31.7524C36.6409 31.8125 36.6409 31.878 36.6196 31.9381C36.2478 32.3095 35.969 32.7737 35.5043 32.9594V33.1451L35.5972 33.3308L36.1549 33.0522L36.8055 32.4952C36.8984 32.588 36.9914 32.7737 36.8055 32.8665L36.6196 33.0522L36.062 33.5164V33.7021H36.1549C36.3408 33.7021 36.5267 33.7021 36.7126 33.5164L37.1773 33.0522L37.3632 33.2379L36.8055 33.8878ZM13.105 10.4913C13.105 11.3269 12.9191 12.0696 12.5473 12.8124C12.4818 12.982 12.3875 13.1391 12.2685 13.2766L11.9897 12.7195L11.432 11.1412C11.3563 11.0247 11.294 10.9002 11.2461 10.7698L11.8967 9.74855C11.8967 9.56286 12.0826 9.56286 12.1756 9.74855L13.105 10.4913ZM14.4991 26.4603C14.4991 26.7389 14.3133 26.9246 13.9415 27.1103C13.7556 27.2031 13.4768 27.3888 13.012 27.3888C13.012 27.3888 12.8262 27.3888 12.7332 27.2031C12.7332 26.646 12.5473 26.1818 12.4544 25.7176L12.6403 25.3462C13.012 24.9749 13.3838 24.882 13.8485 24.882L14.3133 25.0677L14.4991 26.4603ZM10.3167 20.5184C10.0379 20.5184 9.38726 20.8897 9.38726 21.1683V21.354C9.38726 21.8182 9.38726 22.2824 9.66609 22.6538C9.85198 22.8395 9.94492 22.9323 10.1308 22.7466C10.5955 22.4681 11.0602 22.1896 11.3391 21.8182C11.6179 21.6325 11.8038 21.2611 11.9897 20.8897C11.9897 20.7041 11.8038 20.6112 11.6179 20.5184C11.3391 20.4255 10.9673 20.4255 10.8744 20.5184C10.6885 20.5184 10.5955 20.7041 10.5955 20.8897C10.55 21.0805 10.4878 21.2669 10.4096 21.4468L10.1308 21.8182C10.1028 21.6336 10.1028 21.4458 10.1308 21.2611C10.1308 21.0754 10.1308 20.7969 10.3167 20.5184ZM14.778 46.0503C14.6232 46.0605 14.468 46.0605 14.3133 46.0503C14.3133 45.8646 14.4062 45.8646 14.4991 45.8646H14.8709C15.4286 45.9574 15.8003 45.5861 16.358 45.4932H18.3098C18.8675 45.7718 19.4251 45.9574 19.8898 45.5861C20.187 45.3801 20.4975 45.194 20.8193 45.029C20.8922 44.9956 20.9714 44.9784 21.0516 44.9784C21.1318 44.9784 21.2111 44.9956 21.284 45.029C21.284 45.029 21.4699 45.3075 21.3769 45.4004C21.3537 45.4644 21.3167 45.5225 21.2686 45.5707C21.2204 45.6188 21.1622 45.6558 21.0981 45.6789C20.2616 45.9574 19.4251 46.1431 18.4957 46.236C17.5663 46.236 16.7298 46.236 15.8003 46.0503H15.3356H14.778ZM3.25301 27.4816C3.25301 27.6673 3.25301 28.0387 3.53184 28.2244V28.4101L2.60241 28.3172C2.60241 28.3172 2.88124 28.0387 2.88124 27.853L3.06713 26.089L2.88124 25.8104C2.89392 25.741 2.92616 25.6766 2.97418 25.6248C3.62478 25.8104 3.71773 25.8104 3.90361 26.089L4.27539 27.2031C4.34492 27.1904 4.40941 27.1582 4.46127 27.1103V26.1818C4.46127 25.9961 4.46127 25.9033 4.7401 25.9033H5.29776V26.1818C4.92599 26.1818 4.92599 26.2747 4.7401 27.1103L4.64716 28.0387L4.55422 28.4101H4.27539C4.06753 27.8661 3.81898 27.3385 3.53184 26.8317H3.4389L3.34596 27.2031C3.33905 27.2648 3.33905 27.3271 3.34596 27.3888L3.25301 27.4816ZM23.7005 31.9381C23.7212 31.753 23.7212 31.5662 23.7005 31.381L23.5146 30.7311V30.5455C23.7005 29.9884 23.7935 29.5242 23.7005 29.06C23.6561 28.4728 23.6561 27.8831 23.7005 27.2959V27.2031C23.9793 27.2031 24.0723 27.2959 24.1652 27.4816V28.0387C24.2582 28.5029 24.1652 28.9671 24.1652 29.5242L24.0723 32.4952L24.1652 32.9594C24.2582 33.2379 24.1652 33.6093 23.9793 33.8878H23.7935C23.7935 33.4236 23.4217 32.9594 23.3287 32.4023L23.4217 32.3095C23.6076 32.3095 23.7005 32.1238 23.7005 31.9381ZM33.3666 24.5106C32.9948 24.5106 32.6231 24.2321 32.6231 23.5822L31.9725 24.2321C31.9725 24.4178 32.5301 24.7892 32.9019 24.882L33.5525 25.6248L33.9243 24.6963C33.9243 23.9536 33.8313 23.3965 33.6454 23.118C33.3666 22.7466 32.8089 22.4681 32.3442 22.1896C32.1583 22.3752 32.4372 22.9323 32.9948 23.3037C32.9019 23.675 32.9019 24.2321 33.4596 24.5106H33.3666ZM5.66954 23.675L6.59897 23.5822C6.8778 23.5822 7.15663 23.4894 7.15663 23.2108C7.15663 22.9323 6.8778 22.8395 6.69191 22.7466C5.94836 22.5609 4.64716 22.5609 3.71773 23.0251L3.16007 23.4894C2.88124 23.6751 2.97418 23.8607 3.16007 23.9536L3.90361 24.325L4.0895 23.5822L4.55422 23.2108C4.92599 23.0251 5.39071 23.0251 5.85542 23.0251H6.04131L5.94837 23.2108L5.57659 23.3965L5.29776 23.4894C5.29776 23.6751 5.48365 23.675 5.66954 23.675ZM7.71429 29.06L7.80723 28.7814V26.8317L7.99312 26.646L8.179 26.7389L9.01549 27.6673V26.4603C8.92255 26.1818 8.73666 25.9961 8.92255 25.9961H9.66609L9.57315 26.4603L9.38726 27.3888L9.57315 28.5957H9.38726C9.32555 28.6035 9.2631 28.6035 9.20138 28.5957L8.08606 27.3888C8.03804 27.4406 8.0058 27.505 7.99312 27.5745C7.99312 27.853 8.179 28.2244 8.36489 28.5029C8.55077 28.5957 8.55078 28.6886 8.27195 28.7814L7.62134 28.8743L7.71429 29.06ZM19.9828 29.5242C20.4475 29.5242 20.9122 29.5242 21.284 29.1528C21.7487 28.8743 21.9346 28.0387 21.7487 27.5745C21.7432 27.475 21.7111 27.3788 21.6558 27.2959C21.4699 27.1103 21.3769 27.1103 21.284 27.3888L21.1911 28.0387L21.0981 28.4101C20.7899 28.3656 20.4769 28.3656 20.1687 28.4101C19.7969 28.4101 19.1463 28.6886 19.1463 29.06C19.1463 29.4313 19.704 29.5242 20.0757 29.5242H19.9828ZM23.8864 24.6963L24.0723 25.1605L25.3735 26.2747L26.3029 26.7389C26.7987 26.9038 27.2244 27.2309 27.5112 27.6673L27.883 28.0387C28.0688 28.3172 28.3477 28.5029 28.8124 28.5957H28.9983C28.9983 28.3172 28.9983 28.3172 28.7194 28.1315C28.0255 27.4554 27.2797 26.8346 26.4888 26.2747C26.0146 25.9797 25.5496 25.6701 25.0947 25.3462L24.4441 24.9749L23.8864 24.6963ZM9.57315 40.4797C9.4274 39.8893 9.27248 39.3012 9.10843 38.7157L8.92255 38.6228L8.8296 38.7157L8.36489 40.0155C8.32873 40.1366 8.32873 40.2657 8.36489 40.3868L9.01549 42.2437L9.29432 42.4294L9.38726 42.1509L9.57315 40.4797ZM11.9897 25.9033L12.0826 26.2747V26.4603H11.8967C11.6179 26.3675 11.3391 26.1818 11.0602 26.3675V26.646L11.9897 27.0174C12.3614 27.1103 12.4544 27.2959 12.3614 27.7602C12.3614 28.1315 11.9897 28.3172 11.6179 28.4101C11.4337 28.4452 11.2445 28.4452 11.0602 28.4101V28.7814H10.8744C10.8082 28.6914 10.7462 28.5985 10.6885 28.5029L10.5955 27.853V27.6673C10.7814 27.6673 10.8744 27.9458 11.0602 28.0387L11.7108 28.1315L11.8967 27.853L11.6179 27.6673L10.8744 27.2959C10.5955 27.2031 10.5955 26.9246 10.5955 26.7389C10.5955 26.4604 10.6885 26.1818 11.0602 26.089L11.525 25.9033L11.6179 25.5319H11.8038L11.9897 25.9033ZM6.04131 8.3559C5.48365 8.3559 5.11188 8.17021 4.64716 8.26306C4.18244 8.26306 3.81067 8.44874 3.4389 8.54159L3.25301 8.72727L3.4389 8.91296L3.99656 9.0058L7.5284 8.63443L7.71429 8.3559L7.34251 8.17021L6.13425 7.98453L5.94837 8.3559H6.04131ZM19.3322 25.5319C19.3322 25.5319 19.1463 25.5319 19.0534 25.7176C18.9758 25.7999 18.8804 25.8634 18.7745 25.9033L18.6816 25.8104L18.8675 25.2534C18.9604 24.9749 19.0534 24.9749 19.3322 25.0677L19.5181 25.2534C19.704 25.4391 19.8898 25.5319 20.0757 25.4391C20.3546 25.3462 20.1687 25.0677 20.0757 24.9749L19.1463 24.5106C18.8675 24.325 18.7745 24.1393 18.7745 23.8607C18.7745 23.6751 18.9604 23.3965 19.2392 23.3037H19.704C19.8898 23.3037 19.9828 23.3037 20.0757 23.118C20.1687 23.0251 20.3546 22.9323 20.3546 23.118V23.9536H20.0757C19.8898 23.6751 19.704 23.4894 19.5181 23.5822C19.3322 23.5822 19.2392 23.6751 19.3322 23.8607L19.704 24.1393L20.2616 24.4178C20.7263 24.6963 20.6334 24.9749 20.6334 25.2534C20.6334 25.5319 20.3546 25.7176 19.9828 25.7176C19.7526 25.7189 19.5269 25.6544 19.3322 25.5319ZM18.4028 24.6035V25.0677C18.2169 25.4391 17.8451 25.6248 17.4733 25.6248C17.1016 25.6248 16.9157 25.5319 16.8227 25.1605L16.6368 23.9536L16.1721 23.8607L16.0792 23.675L16.6368 23.4894C17.0086 23.4894 17.0086 23.4894 17.1015 23.7679L17.2874 25.0677C17.2874 25.2534 17.3804 25.3462 17.6592 25.3462C17.8451 25.3462 17.938 25.3462 17.938 25.0677V24.0464L17.5663 23.5822C17.4733 23.4894 17.3804 23.3965 17.5663 23.3037C18.2169 23.118 18.2169 22.9323 18.3098 23.675L18.4957 24.6035H18.4028ZM18.6816 27.0174C18.6816 27.2959 18.8675 28.1315 19.0534 28.3172L20.3546 28.0387C20.7263 27.9458 20.9122 27.5745 20.8193 27.2031C20.8193 26.9246 20.6334 26.8317 20.4475 26.7389C20.3548 26.7302 20.2614 26.7302 20.1687 26.7389C19.611 26.7389 19.2392 26.8317 18.7745 27.0174H18.6816ZM6.97074 23.675L6.41308 23.7679L5.66954 23.8607L4.92599 23.675C4.7401 23.675 4.55422 23.8607 4.46127 24.1393C4.46127 24.4178 4.64716 24.6035 4.92599 24.6963C5.53673 24.8274 6.16023 24.8896 6.78485 24.882C6.97074 24.882 6.97074 24.882 6.97074 24.6963V23.675ZM21.8417 10.3985L21.0981 10.1199L20.9122 9.84139V8.82012C20.9122 8.63443 21.0052 8.54159 21.1911 8.63443C21.4699 8.63443 21.6558 8.63443 21.9346 8.82012C22.2134 8.91296 22.6781 9.74855 22.5852 10.1199C22.3993 10.3985 22.2134 10.3985 21.8417 10.3985ZM16.5439 25.6248L16.2651 25.9033C15.9862 26.089 15.3356 26.1818 14.9639 26.4603C14.778 26.5532 14.9639 26.1818 14.9639 25.9961L14.685 24.9749L14.4062 24.4178C14.2203 24.2321 14.5921 24.2321 14.685 24.1393L15.3356 23.9536H15.5215V24.1393C15.2427 24.325 15.2427 24.4178 15.3356 24.6963V25.5319L15.5215 25.9033C15.7074 25.9033 15.9862 25.7176 15.9862 25.6248V25.1605L16.1721 24.9749L16.2651 25.1605L16.5439 25.7176V25.6248ZM17.6592 19.2186C17.5663 19.2186 17.4733 19.2186 17.3804 19.0329L17.1015 17.8259C17.1015 17.6402 17.1016 17.5474 17.3804 17.5474L18.9604 18.0116C19.1463 18.0116 19.1463 18.1973 19.0534 18.2901L17.8451 19.2186H17.6592ZM41.5456 4.36364C41.5456 3.89942 41.0809 3.06383 40.895 2.7853C40.6162 2.50677 40.3373 2.41393 39.9656 2.7853C39.9003 2.84378 39.8382 2.90577 39.7797 2.97099C39.5009 3.34236 39.5009 3.4352 39.9656 3.62089L40.8021 4.08511L41.4527 4.73501V4.36364H41.5456ZM11.9897 40.294C11.6283 40.4693 11.3108 40.7231 11.0602 41.0368L10.5955 41.9652C10.4704 42.2641 10.377 42.5753 10.3167 42.8936H10.4096C10.6885 42.8936 11.2461 42.3366 11.3391 42.3366C11.7108 41.8723 11.8967 41.4081 12.0826 40.4797L11.9897 40.294ZM52.8847 2.1354C52.6988 1.57834 52.2341 0.928433 51.9552 0.649903C51.7694 0.371373 51.6764 0.27853 51.3976 0.649903C51.3003 0.705014 51.2071 0.767071 51.1188 0.83559C50.8399 1.20696 50.654 1.67118 51.1188 1.76402L52.327 1.85687L52.7917 2.22824L52.9776 2.1354H52.8847ZM5.85542 27.0174V28.2244C5.85542 28.5029 5.94836 28.5029 6.22719 28.5029C6.41308 28.5029 6.50602 28.3172 6.50602 28.0387L6.69191 27.1103C6.69191 26.8317 6.69191 26.646 6.50602 26.646C6.22719 26.646 5.94836 26.7389 5.85542 27.0174ZM9.57315 14.4836C9.25249 14.4317 8.94002 14.338 8.64372 14.205C8.179 13.9265 7.71429 13.4623 7.80723 12.9981C7.80723 12.8124 7.99312 12.7195 8.179 12.8124L8.27195 12.9052L9.10843 13.8337C9.29432 13.9265 9.48021 14.205 9.57315 14.4836ZM13.012 25.6248L13.1979 26.5532C13.1979 26.7389 13.2909 26.9246 13.5697 26.8317C13.8485 26.8317 13.9415 26.646 13.9415 26.4603L13.7556 25.5319C13.7556 25.2534 13.5697 25.0677 13.2909 25.1605C13.105 25.1605 13.012 25.1605 13.012 25.5319V25.6248ZM26.8606 7.98453L26.117 9.09865L25.4664 9.74855H25.1876V9.56286L26.117 8.44874L26.4888 7.98453H26.6747L26.8606 8.07737V7.98453ZM45.4492 17.6402L45.3563 18.2901L45.0775 17.8259C45.0775 17.5474 44.7057 17.0832 44.4268 16.5261V16.3404C44.4268 16.2476 44.5198 16.1547 44.6127 16.2476H44.8916L45.4492 17.6402ZM47.494 2.32108C47.494 2.32108 47.6799 2.32108 47.7728 2.50677V2.7853L46.0069 3.52805C46.0069 3.52805 45.821 3.62089 45.9139 3.52805C45.9139 3.15667 47.1222 2.32108 47.494 2.32108ZM31.5077 22.5609C31.2289 22.5609 30.9501 22.7466 30.9501 23.0251C30.9501 23.3037 31.3219 23.5822 31.6007 23.5822C31.8795 23.5822 32.0654 23.3965 32.0654 23.118C32.0654 22.7466 31.8795 22.5609 31.5077 22.5609ZM6.97074 45.9574L6.69191 46.1431C6.32014 46.1431 6.22719 46.236 6.22719 46.4217C6.22719 46.6074 6.32014 46.7002 6.50602 46.7002C6.97074 46.5145 7.24957 46.5145 7.80723 46.6073H7.90017L8.179 46.236L7.90017 46.0503H6.97074V45.9574ZM39.6867 19.2186C39.6867 19.3114 39.5009 19.4043 39.5938 19.4971V19.7756H40.3373L41.4527 19.9613L41.6386 19.8685V19.5899C41.2668 19.4043 40.8021 19.2186 40.3373 19.2186H39.6867ZM19.2392 9.93424C18.9878 9.81786 18.7398 9.69401 18.4957 9.56286V9.28433L18.9604 8.63443H19.2392L19.611 9.56286C19.611 9.74855 19.611 9.84139 19.2392 9.84139V9.93424ZM9.38726 19.1257C9.57315 19.1257 9.66609 19.1257 9.57315 19.3114C9.57315 19.4043 9.57315 19.4971 9.38726 19.4971C9.14761 19.588 8.89803 19.6504 8.64372 19.6828C8.33496 19.7189 8.02304 19.7189 7.71429 19.6828L7.34251 19.4971C7.37119 19.4465 7.41137 19.4033 7.4598 19.3711C7.50823 19.3388 7.56356 19.3184 7.62134 19.3114L9.38726 19.1257ZM14.685 4.27079H14.4991L12.9191 3.34236L12.8262 3.15667H13.012C13.3838 3.15667 13.9415 3.4352 14.3133 3.52805C14.5921 3.71373 14.685 3.89942 14.685 4.17795V4.27079ZM22.2134 15.0406C22.3064 15.0406 22.3993 15.2263 22.2134 15.412C21.9346 15.8762 21.9346 16.2476 21.7487 16.8046C21.6962 16.9035 21.634 16.9968 21.5628 17.0832L21.3769 17.176V16.9903L21.5628 16.0619L21.8417 15.412C21.8417 15.1335 22.0275 15.0406 22.2134 15.0406ZM40.4303 9.47002C39.7797 9.47002 39.1291 9.19149 38.4785 8.91296C38.396 8.87574 38.3299 8.80972 38.2926 8.72727C38.3834 8.69876 38.4807 8.69876 38.5714 8.72727L40.4303 9.19149L40.6162 9.37718C40.5699 9.45298 40.5062 9.51665 40.4303 9.56286V9.47002ZM32.6231 21.354C32.5612 21.2345 32.4638 21.1372 32.3442 21.0754C32.3442 20.9826 32.1583 21.0754 31.9725 21.0754C31.8689 21.157 31.7753 21.2505 31.6936 21.354C31.6007 21.5397 31.6936 21.7253 31.8795 21.911H32.4372L32.6231 21.354ZM20.5404 12.3482L20.3546 12.7195C20.084 13.0363 19.805 13.3459 19.5181 13.648H19.3322V13.3694C19.4397 13.1439 19.564 12.9266 19.704 12.7195L20.1687 12.1625H20.4475V12.3482H20.5404ZM10.0379 9.74855L9.75904 9.56286L9.01549 8.3559L8.8296 7.98453L9.10843 7.706C9.15305 7.76009 9.18483 7.82357 9.20138 7.89168L9.66609 8.82012L10.0379 9.47002V9.74855ZM9.57315 15.8762L9.20138 15.6905L8.27195 15.8762C8.14866 15.894 8.02346 15.894 7.90017 15.8762L7.62134 15.7834L8.179 15.5048C8.36489 15.5048 9.10843 15.412 9.66609 15.5048V15.8762H9.57315ZM47.2151 7.98453H47.401L48.5163 8.91296V9.0058C48.561 9.0599 48.5927 9.12338 48.6093 9.19149C48.5474 9.19626 48.4853 9.19626 48.4234 9.19149C47.9587 8.91296 47.494 8.72727 47.1222 8.26306V7.98453H47.2151ZM20.0757 9.37718V9.56286L19.8898 9.37718L19.704 8.82012C19.704 8.3559 19.704 8.07737 19.9828 7.89168C20.0757 7.706 20.1687 7.706 20.1687 7.89168V9.37718H20.0757ZM13.1979 7.706V7.89168L13.5697 9.47002V10.0271L13.3838 9.84139L13.1979 9.09865L13.012 8.17021C13.012 7.98453 13.012 7.79884 13.1979 7.706ZM44.7986 14.3907L45.2633 14.8549L45.9139 15.412V15.6905H45.6351L44.5198 14.8549V14.4836C44.5507 14.4797 44.5819 14.4797 44.6127 14.4836L44.7986 14.3907ZM23.6076 4.82785H24.3511L24.4441 5.01354L24.3511 5.19923H22.957C22.8786 5.1184 22.8156 5.02402 22.7711 4.9207L22.957 4.82785H23.6076ZM32.6231 6.59188C32.9948 7.05609 33.0878 7.52031 33.1807 7.98453V8.07737H33.0878C32.716 7.61315 32.4372 7.24178 32.3442 6.77756L32.4372 6.49903H32.6231V6.59188ZM27.0465 38.4371L27.883 37.8801C27.9759 37.7872 27.883 37.7872 27.883 37.6944C27.883 37.5087 27.79 37.5087 27.6041 37.6015C27.2324 37.6015 27.0465 37.7872 26.6747 37.8801C26.5818 37.8801 26.4888 38.0658 26.6747 38.1586L27.0465 38.4371ZM16.0792 5.47776L16.7298 5.19923L17.4733 4.82785C17.5237 4.82359 17.5744 4.82962 17.6223 4.84558C17.6703 4.86155 17.7144 4.8871 17.7522 4.9207L17.5663 5.10638L16.4509 5.75629C16.3272 5.76662 16.2029 5.76662 16.0792 5.75629C16.0547 5.71394 16.0418 5.66591 16.0418 5.61702C16.0418 5.56813 16.0547 5.5201 16.0792 5.47776ZM4.92599 14.5764L4.83305 13.648C4.80372 13.4323 4.80372 13.2137 4.83305 12.9981L5.01893 12.8124L5.20482 12.9981V14.5764H5.01893H4.92599ZM29.1842 3.4352C29.5918 3.14448 30.0277 2.89563 30.4854 2.69246C30.1427 3.20803 29.7003 3.64997 29.1842 3.99226V3.4352ZM23.3287 22.7466C23.3287 23.0251 23.4217 23.2108 23.6076 23.3965L23.7935 23.118V21.911C23.7935 21.7253 23.6076 21.7253 23.6076 21.911C23.5146 22.1896 23.3287 22.4681 23.3287 22.8395V22.7466ZM43.7762 38.9014L42.0103 39.4584C42.3821 39.9226 43.5904 39.4584 43.7762 38.9014ZM18.3098 7.52031C18.3098 7.98453 18.3098 8.54159 18.031 9.0058L17.8451 9.19149V8.91296C17.9623 8.41614 18.0862 7.92093 18.2169 7.42747L18.3098 7.52031ZM42.475 40.3868H43.4045C43.4897 40.3118 43.5538 40.2158 43.5904 40.1083L43.6833 39.6441L43.2186 39.9226C42.9435 40.0003 42.6642 40.0623 42.3821 40.1083L42.2892 40.294L42.3821 40.3868H42.475ZM38.9432 22.0039L39.315 21.2611L39.1291 20.9826C39.0674 20.9748 39.0049 20.9748 38.9432 20.9826C38.8503 21.1683 38.2926 21.8182 38.3855 21.911H38.9432V22.0039ZM10.1308 14.7621L10.5026 13.8337H10.6885V14.7621C10.6688 14.9029 10.6035 15.0333 10.5026 15.1335C10.4413 15.146 10.378 15.146 10.3167 15.1335V14.9478L10.1308 14.7621ZM31.136 21.5397C30.9501 21.5397 30.7642 21.7253 30.6713 21.911C30.6713 22.0967 30.8571 22.2824 31.136 22.2824C31.3219 22.2824 31.5077 22.0967 31.5077 21.911C31.5077 21.6325 31.4148 21.5397 31.136 21.5397ZM30.9501 23.8607C30.9501 23.5822 30.7642 23.3965 30.4854 23.3965C30.2995 23.3965 30.1136 23.5822 30.1136 23.7679C30.1136 23.9536 30.3924 24.1393 30.5783 24.1393C30.8571 24.1393 30.9501 24.0464 30.9501 23.8607ZM30.0207 21.4468C30.0207 21.7253 29.8348 21.8182 29.6489 21.8182C29.463 21.8182 29.1842 21.6325 29.1842 21.4468C29.1842 21.2611 29.3701 21.0754 29.5559 21.0754C29.8348 21.0754 30.0207 21.1683 30.0207 21.4468ZM30.2065 22.3752C29.9277 22.3752 29.8348 22.5609 29.8348 22.7466C29.8348 22.9323 30.0207 23.118 30.2065 23.118C30.3924 23.118 30.5783 22.9323 30.5783 22.7466C30.5783 22.5609 30.3924 22.3752 30.2065 22.3752ZM27.6971 39.087C27.4182 39.087 27.1394 39.087 27.2324 39.2727C27.2324 39.4584 27.4182 39.6441 27.6041 39.6441C27.79 39.6441 27.883 39.4584 27.883 39.2727C27.883 39.087 27.883 38.9942 27.6971 38.9942V39.087ZM10.0379 3.80658C9.85198 3.34236 9.94492 2.87814 10.0379 2.22824C10.3167 2.7853 10.3167 3.52805 10.0379 3.89942V3.80658ZM30.9501 20.147C30.7642 20.147 30.6713 20.4255 30.6713 20.4255L30.8571 20.7969C30.9809 20.7411 31.0801 20.642 31.136 20.5184L30.9501 20.147Z" fill="black"></path><path d="M73.52 29.6H79.02V31H71.86V18.72H78.82V20.12H73.52V24.1H78.12V25.5H73.52V29.6ZM81.3838 21.92H82.8038L83.0038 23.28C83.7838 22.42 84.8438 21.68 86.3438 21.68C88.1238 21.68 89.0638 22.66 89.0638 24.52V31H87.5438V24.98C87.5438 23.62 87.0438 22.98 85.9038 22.98C84.9238 22.98 84.0038 23.48 83.0838 24.5V31H81.5638V25.14C81.5638 24 81.5038 22.88 81.3838 21.92ZM91.6641 26.4C91.6641 23.5 93.2241 21.68 95.6841 21.68C96.7841 21.68 97.7841 22.1 98.4441 22.74L98.7441 21.92H99.9841L99.8441 23.2V29.02L99.8641 32.26C99.8641 34.38 98.6041 35.66 95.7241 35.66C93.2041 35.66 91.9641 34.64 91.9641 32.66H93.3641C93.3641 34.06 94.5441 34.44 95.7641 34.44C97.5441 34.44 98.3641 33.66 98.3641 31.96C98.3641 31.54 98.3441 30.84 98.3241 30.16C97.7041 30.78 96.8241 31.24 95.5841 31.24C93.1641 31.24 91.6641 29.42 91.6641 26.4ZM93.2641 26.38C93.2641 28.7 94.2641 30.02 95.9441 30.02C96.8441 30.02 97.6241 29.64 98.3241 28.88V23.9C97.8641 23.4 97.1241 22.9 96.0041 22.9C94.2841 22.9 93.2641 24.2 93.2641 26.38ZM104.743 31H103.223V21.92H104.743V31ZM102.983 19.32C102.983 18.74 103.403 18.28 103.983 18.28C104.563 18.28 105.003 18.74 105.003 19.32C105.003 19.9 104.563 20.34 103.983 20.34C103.403 20.34 102.983 19.9 102.983 19.32ZM107.985 21.92H109.405L109.605 23.28C110.385 22.42 111.445 21.68 112.945 21.68C114.725 21.68 115.665 22.66 115.665 24.52V31H114.145V24.98C114.145 23.62 113.645 22.98 112.505 22.98C111.525 22.98 110.605 23.48 109.685 24.5V31H108.165V25.14C108.165 24 108.105 22.88 107.985 21.92ZM118.266 26.4C118.266 23.4 119.886 21.68 122.486 21.68C124.726 21.68 126.006 23 126.006 25.34C126.006 25.7 125.986 26.24 125.926 26.64H119.806C119.866 28.88 120.946 30.02 122.946 30.02C124.006 30.02 124.986 29.68 125.686 29.18L125.886 30.5C124.986 30.98 123.826 31.24 122.706 31.24C119.886 31.24 118.266 29.38 118.266 26.4ZM119.826 25.54H124.466C124.486 25.4 124.486 25.14 124.486 24.96C124.486 23.58 123.586 22.84 122.386 22.84C120.906 22.84 119.966 23.88 119.826 25.54ZM128.031 26.4C128.031 23.4 129.651 21.68 132.251 21.68C134.491 21.68 135.771 23 135.771 25.34C135.771 25.7 135.751 26.24 135.691 26.64H129.571C129.631 28.88 130.711 30.02 132.711 30.02C133.771 30.02 134.751 29.68 135.451 29.18L135.651 30.5C134.751 30.98 133.591 31.24 132.471 31.24C129.651 31.24 128.031 29.38 128.031 26.4ZM129.591 25.54H134.231C134.251 25.4 134.251 25.14 134.251 24.96C134.251 23.58 133.351 22.84 132.151 22.84C130.671 22.84 129.731 23.88 129.591 25.54ZM138.337 21.92H139.757L139.957 23.28C140.857 22.38 141.737 21.84 142.897 21.84C143.217 21.84 143.497 21.88 143.677 21.92L143.457 23.44C143.237 23.34 142.957 23.28 142.617 23.28C141.797 23.28 140.977 23.62 140.037 24.52V31H138.517V25.14C138.517 24 138.457 22.88 138.337 21.92ZM147.361 31H145.841V21.92H147.361V31ZM145.601 19.32C145.601 18.74 146.021 18.28 146.601 18.28C147.181 18.28 147.621 18.74 147.621 19.32C147.621 19.9 147.181 20.34 146.601 20.34C146.021 20.34 145.601 19.9 145.601 19.32ZM150.603 21.92H152.023L152.223 23.28C153.003 22.42 154.062 21.68 155.563 21.68C157.343 21.68 158.283 22.66 158.283 24.52V31H156.763V24.98C156.763 23.62 156.263 22.98 155.123 22.98C154.143 22.98 153.223 23.48 152.303 24.5V31H150.783V25.14C150.783 24 150.723 22.88 150.603 21.92ZM160.883 26.4C160.883 23.5 162.443 21.68 164.903 21.68C166.003 21.68 167.003 22.1 167.663 22.74L167.963 21.92H169.203L169.063 23.2V29.02L169.083 32.26C169.083 34.38 167.823 35.66 164.943 35.66C162.423 35.66 161.183 34.64 161.183 32.66H162.583C162.583 34.06 163.763 34.44 164.983 34.44C166.763 34.44 167.583 33.66 167.583 31.96C167.583 31.54 167.563 30.84 167.543 30.16C166.923 30.78 166.043 31.24 164.803 31.24C162.383 31.24 160.883 29.42 160.883 26.4ZM162.483 26.38C162.483 28.7 163.483 30.02 165.163 30.02C166.063 30.02 166.843 29.64 167.543 28.88V23.9C167.083 23.4 166.343 22.9 165.223 22.9C163.503 22.9 162.483 24.2 162.483 26.38ZM178.366 22.52C179.466 25.42 180.106 27.08 180.646 28.76C181.186 27.04 181.826 25.42 182.926 22.48L184.346 18.72H185.966L181.246 31H179.946L175.226 18.72H176.926L178.366 22.52ZM189.665 31H188.145V21.92H189.665V31ZM187.905 19.32C187.905 18.74 188.325 18.28 188.905 18.28C189.485 18.28 189.925 18.74 189.925 19.32C189.925 19.9 189.485 20.34 188.905 20.34C188.325 20.34 187.905 19.9 187.905 19.32ZM194.507 28.52C194.507 29.58 194.667 29.82 195.247 29.82C195.427 29.82 195.747 29.78 195.907 29.74V31C195.627 31.06 195.147 31.1 194.867 31.1C193.467 31.1 192.987 30.46 192.987 28.8V17.1H194.507V28.52ZM199.703 28.52C199.703 29.58 199.863 29.82 200.443 29.82C200.623 29.82 200.943 29.78 201.103 29.74V31C200.823 31.06 200.343 31.1 200.063 31.1C198.663 31.1 198.183 30.46 198.183 28.8V17.1H199.703V28.52ZM202.68 26.4C202.68 23.5 204.24 21.68 206.7 21.68C207.8 21.68 208.8 22.1 209.46 22.74L209.76 21.92H211L210.86 23.2V28.46C210.86 29.54 210.94 30.24 211.12 31H209.74C209.66 30.76 209.56 30.4 209.48 30.02C208.84 30.7 207.94 31.24 206.6 31.24C204.18 31.24 202.68 29.42 202.68 26.4ZM204.28 26.38C204.28 28.7 205.28 30.02 206.96 30.02C207.86 30.02 208.64 29.64 209.34 28.88V23.9C208.88 23.4 208.14 22.9 207.02 22.9C205.3 22.9 204.28 24.2 204.28 26.38ZM213.559 26.4C213.559 23.5 215.119 21.68 217.579 21.68C218.679 21.68 219.679 22.1 220.339 22.74L220.639 21.92H221.879L221.739 23.2V29.02L221.759 32.26C221.759 34.38 220.499 35.66 217.619 35.66C215.099 35.66 213.859 34.64 213.859 32.66H215.259C215.259 34.06 216.439 34.44 217.659 34.44C219.439 34.44 220.259 33.66 220.259 31.96C220.259 31.54 220.239 30.84 220.219 30.16C219.599 30.78 218.719 31.24 217.479 31.24C215.059 31.24 213.559 29.42 213.559 26.4ZM215.159 26.38C215.159 28.7 216.159 30.02 217.839 30.02C218.739 30.02 219.519 29.64 220.219 28.88V23.9C219.759 23.4 219.019 22.9 217.899 22.9C216.179 22.9 215.159 24.2 215.159 26.38ZM224.418 26.4C224.418 23.4 226.038 21.68 228.638 21.68C230.878 21.68 232.158 23 232.158 25.34C232.158 25.7 232.138 26.24 232.078 26.64H225.958C226.018 28.88 227.098 30.02 229.098 30.02C230.158 30.02 231.138 29.68 231.838 29.18L232.038 30.5C231.138 30.98 229.978 31.24 228.858 31.24C226.038 31.24 224.418 29.38 224.418 26.4ZM225.978 25.54H230.618C230.638 25.4 230.638 25.14 230.638 24.96C230.638 23.58 229.738 22.84 228.538 22.84C227.058 22.84 226.118 23.88 225.978 25.54Z" fill="#FF4203"></path></svg>